<?xml version="1.0" encoding="utf-8" standalone="no"?>
<!DOCTYPE svg PUBLIC "-//W3C//DTD SVG 1.1//EN"
  "http://www.w3.org/Graphics/SVG/1.1/DTD/svg11.dtd">
<svg xmlns:xlink="http://www.w3.org/1999/xlink" width="1152pt" height="446.4pt" viewBox="0 0 1152 446.4" xmlns="http://www.w3.org/2000/svg" version="1.1">
 <metadata>
  <rdf:RDF xmlns:dc="http://purl.org/dc/elements/1.1/" xmlns:cc="http://creativecommons.org/ns#" xmlns:rdf="http://www.w3.org/1999/02/22-rdf-syntax-ns#">
   <cc:Work>
    <dc:type rdf:resource="http://purl.org/dc/dcmitype/StillImage"/>
    <dc:date>2026-10-07T21:58:04.561314</dc:date>
    <dc:format>image/svg+xml</dc:format>
    <dc:creator>
     <cc:Agent>
      <dc:title>Matplotlib v3.10.8, https://matplotlib.org/</dc:title>
     </cc:Agent>
    </dc:creator>
   </cc:Work>
  </rdf:RDF>
 </metadata>
 <defs>
  <style type="text/css">*{stroke-linejoin: round; stroke-linecap: butt}</style>
 </defs>
 <g id="figure_1">
  <g id="patch_1">
   <path d="M 0 446.4 
L 1152 446.4 
L 1152 0 
L 0 0 
z
" style="fill: #ffffff"/>
  </g>
  <g id="axes_1">
   <g id="patch_2">
    <path d="M 149.76 330.336 
L 629.76 330.336 
L 629.76 62.496 
L 149.76 62.496 
z
" style="fill: #ffffff"/>
   </g>
   <g id="matplotlib.axis_1">
    <g id="xtick_1">
     <g id="line2d_1">
      <path d="M 201.188571 330.336 
L 201.188571 62.496 
" clip-path="url(#ped006ba6a1)" style="fill: none; stroke: #ececf0; stroke-linecap: square"/>
     </g>
     <g id="line2d_2"/>
     <g id="text_1">
      <!-- 0 -->
      <g style="fill: #6e6e73" transform="translate(195.617712 354.524125) scale(0.19 -0.19)">
       <defs>
        <path id="MicrosoftYaHei-30" d="M 284 2325 
Q 284 3606 709 4264 
Q 1134 4922 1941 4922 
Q 3478 4922 3478 2441 
Q 3478 1216 3045 567 
Q 2613 -81 1831 -81 
Q 1094 -81 689 534 
Q 284 1150 284 2325 
z
M 909 2353 
Q 909 425 1888 425 
Q 2850 425 2850 2384 
Q 2850 4413 1906 4413 
Q 909 4413 909 2353 
z
" transform="scale(0.015625)"/>
       </defs>
       <use xlink:href="#MicrosoftYaHei-30"/>
      </g>
     </g>
    </g>
    <g id="xtick_2">
     <g id="line2d_3">
      <path d="M 296.426667 330.336 
L 296.426667 62.496 
" clip-path="url(#ped006ba6a1)" style="fill: none; stroke: #ececf0; stroke-linecap: square"/>
     </g>
     <g id="line2d_4"/>
     <g id="text_2">
      <!-- 2 -->
      <g style="fill: #6e6e73" transform="translate(290.855807 354.524125) scale(0.19 -0.19)">
       <defs>
        <path id="MicrosoftYaHei-32" d="M 2666 3572 
Q 2666 3963 2419 4186 
Q 2172 4409 1747 4409 
Q 1447 4409 1140 4256 
Q 834 4103 569 3819 
L 569 4413 
Q 806 4659 1107 4790 
Q 1409 4922 1816 4922 
Q 2472 4922 2872 4570 
Q 3272 4219 3272 3619 
Q 3272 3084 3026 2693 
Q 2781 2303 2188 1894 
Q 1581 1475 1376 1294 
Q 1172 1113 1090 947 
Q 1009 781 1009 544 
L 3416 544 
L 3416 0 
L 372 0 
L 372 241 
Q 372 659 486 951 
Q 600 1244 862 1520 
Q 1125 1797 1681 2184 
Q 2250 2584 2458 2886 
Q 2666 3188 2666 3572 
z
" transform="scale(0.015625)"/>
       </defs>
       <use xlink:href="#MicrosoftYaHei-32"/>
      </g>
     </g>
    </g>
    <g id="xtick_3">
     <g id="line2d_5">
      <path d="M 391.664762 330.336 
L 391.664762 62.496 
" clip-path="url(#ped006ba6a1)" style="fill: none; stroke: #ececf0; stroke-linecap: square"/>
     </g>
     <g id="line2d_6"/>
     <g id="text_3">
      <!-- 4 -->
      <g style="fill: #6e6e73" transform="translate(386.093903 354.524125) scale(0.19 -0.19)">
       <defs>
        <path id="MicrosoftYaHei-34" d="M 2906 4841 
L 2906 1644 
L 3631 1644 
L 3631 1138 
L 2906 1138 
L 2906 0 
L 2313 0 
L 2313 1138 
L 53 1138 
L 53 1616 
Q 656 2294 1265 3178 
Q 1875 4063 2272 4841 
L 2906 4841 
z
M 741 1644 
L 2313 1644 
L 2313 3950 
Q 1988 3366 1616 2817 
Q 1244 2269 741 1644 
z
" transform="scale(0.015625)"/>
       </defs>
       <use xlink:href="#MicrosoftYaHei-34"/>
      </g>
     </g>
    </g>
    <g id="xtick_4">
     <g id="line2d_7">
      <path d="M 486.902857 330.336 
L 486.902857 62.496 
" clip-path="url(#ped006ba6a1)" style="fill: none; stroke: #ececf0; stroke-linecap: square"/>
     </g>
     <g id="line2d_8"/>
     <g id="text_4">
      <!-- 6 -->
      <g style="fill: #6e6e73" transform="translate(481.331998 354.524125) scale(0.19 -0.19)">
       <defs>
        <path id="MicrosoftYaHei-36" d="M 3181 4219 
Q 2803 4413 2391 4413 
Q 1763 4413 1381 3866 
Q 1000 3319 994 2372 
L 1009 2372 
Q 1353 3038 2106 3038 
Q 2734 3038 3109 2628 
Q 3484 2219 3484 1541 
Q 3484 831 3051 375 
Q 2619 -81 1947 -81 
Q 1209 -81 789 495 
Q 369 1072 369 2131 
Q 369 3413 920 4167 
Q 1472 4922 2372 4922 
Q 2888 4922 3181 4781 
L 3181 4219 
z
M 1031 1584 
Q 1031 1106 1286 765 
Q 1541 425 1963 425 
Q 2363 425 2613 719 
Q 2863 1013 2863 1475 
Q 2863 1975 2627 2253 
Q 2391 2531 1956 2531 
Q 1544 2531 1287 2250 
Q 1031 1969 1031 1584 
z
" transform="scale(0.015625)"/>
       </defs>
       <use xlink:href="#MicrosoftYaHei-36"/>
      </g>
     </g>
    </g>
    <g id="xtick_5">
     <g id="line2d_9">
      <path d="M 582.140952 330.336 
L 582.140952 62.496 
" clip-path="url(#ped006ba6a1)" style="fill: none; stroke: #ececf0; stroke-linecap: square"/>
     </g>
     <g id="line2d_10"/>
     <g id="text_5">
      <!-- 8 -->
      <g style="fill: #6e6e73" transform="translate(576.570093 354.524125) scale(0.19 -0.19)">
       <defs>
        <path id="MicrosoftYaHei-38" d="M 306 1350 
Q 306 1769 556 2122 
Q 806 2475 1200 2625 
Q 884 2803 700 3081 
Q 516 3359 516 3684 
Q 516 4028 692 4312 
Q 869 4597 1183 4759 
Q 1497 4922 1875 4922 
Q 2256 4922 2572 4761 
Q 2888 4600 3063 4315 
Q 3238 4031 3238 3684 
Q 3238 3366 3058 3086 
Q 2878 2806 2559 2625 
Q 2953 2472 3200 2119 
Q 3447 1766 3447 1350 
Q 3447 938 3250 611 
Q 3053 284 2690 103 
Q 2328 -78 1875 -78 
Q 1425 -78 1065 103 
Q 706 284 506 612 
Q 306 941 306 1350 
z
M 906 1378 
Q 906 947 1172 687 
Q 1438 428 1878 428 
Q 2309 428 2582 692 
Q 2856 956 2856 1378 
Q 2856 1778 2579 2051 
Q 2303 2325 1878 2325 
Q 1456 2325 1181 2058 
Q 906 1791 906 1378 
z
M 1081 3634 
Q 1081 3309 1312 3076 
Q 1544 2844 1878 2844 
Q 2206 2844 2445 3078 
Q 2684 3313 2684 3634 
Q 2684 3963 2454 4191 
Q 2225 4419 1878 4419 
Q 1534 4419 1307 4195 
Q 1081 3972 1081 3634 
z
" transform="scale(0.015625)"/>
       </defs>
       <use xlink:href="#MicrosoftYaHei-38"/>
      </g>
     </g>
    </g>
    <g id="text_6">
     <!-- 每例实际模型请求 / 次 -->
     <g style="fill: #6e6e73" transform="translate(304.597969 376.836781) scale(0.17 -0.17)">
      <defs>
       <path id="MicrosoftYaHei-6bcf" d="M 125 2203 
L 1044 2203 
L 1325 3766 
L 5456 3766 
Q 5422 2928 5391 2203 
L 6300 2203 
L 6300 1753 
L 5372 1753 
Q 5344 1141 5319 616 
L 6075 616 
L 6075 178 
L 5284 178 
Q 5222 -278 5031 -484 
Q 4788 -753 4181 -753 
Q 3831 -753 3288 -728 
Q 3256 -516 3194 -222 
Q 3838 -278 4119 -278 
Q 4513 -278 4638 -128 
Q 4722 -41 4766 178 
L 763 178 
L 763 647 
L 963 1753 
L 125 1753 
L 125 2203 
z
M 4866 1753 
L 1472 1753 
L 1275 616 
L 4813 616 
Q 4844 1172 4866 1753 
z
M 4925 3328 
L 1750 3328 
L 1553 2203 
L 4888 2203 
Q 4906 2753 4925 3328 
z
M 100 3522 
Q 1025 4309 1550 5359 
L 2113 5359 
Q 1966 5069 1803 4803 
L 6156 4803 
L 6156 4353 
L 1509 4353 
Q 1022 3659 413 3134 
Q 281 3316 100 3522 
z
M 2619 2978 
L 2913 3303 
Q 3388 2934 3750 2622 
L 3413 2247 
Q 3025 2628 2619 2978 
z
M 2569 1391 
L 2863 1716 
Q 3338 1347 3700 1034 
L 3369 666 
Q 2888 1116 2569 1391 
z
" transform="scale(0.015625)"/>
       <path id="MicrosoftYaHei-4f8b" d="M 2381 1841 
L 2631 2191 
Q 2916 1997 3247 1738 
Q 3488 2378 3581 3128 
L 2703 3128 
Q 2350 1984 1831 1291 
Q 1700 1491 1531 1678 
Q 2238 2694 2578 4522 
L 1900 4522 
L 1900 4959 
L 4319 4959 
L 4319 4522 
L 3044 4522 
Q 2947 4009 2828 3559 
L 4044 3559 
L 4044 3128 
Q 3788 666 2038 -822 
Q 1900 -634 1694 -416 
Q 2578 297 3063 1303 
Q 2753 1556 2381 1841 
z
M 88 2291 
Q 894 3659 1281 5322 
L 1744 5234 
Q 1578 4534 1325 3853 
L 1325 -809 
L 900 -809 
L 900 2847 
Q 625 2275 288 1716 
Q 213 1966 88 2291 
z
M 5575 5303 
L 6031 5303 
L 6031 84 
Q 6031 -391 5881 -566 
Q 5750 -728 5356 -734 
Q 5088 -741 4488 -722 
Q 4463 -466 4400 -203 
Q 4881 -253 5188 -253 
Q 5431 -259 5500 -166 
Q 5575 -84 5575 234 
L 5575 5303 
z
M 4913 653 
L 4469 653 
L 4469 4322 
L 4913 4322 
L 4913 653 
z
" transform="scale(0.015625)"/>
       <path id="MicrosoftYaHei-5b9e" d="M 113 -397 
Q 2419 34 3081 972 
L 213 972 
L 213 1434 
L 3313 1434 
Q 3525 2084 3506 3703 
L 4031 3703 
Q 4031 2097 3856 1434 
L 6225 1434 
L 6225 972 
L 3681 972 
Q 3631 872 3563 759 
Q 4900 197 6181 -403 
L 5906 -878 
Q 4569 -197 3263 391 
Q 2413 -441 413 -891 
Q 269 -616 113 -397 
z
M 331 4422 
L 3194 4422 
Q 3038 4703 2775 5078 
L 3231 5334 
Q 3438 5059 3731 4609 
L 3388 4422 
L 6063 4422 
L 6063 3303 
L 5563 3303 
L 5563 3959 
L 831 3959 
L 831 3303 
L 331 3303 
L 331 4422 
z
M 1100 2734 
Q 1819 2409 2450 2053 
L 2181 1622 
Q 1556 2003 863 2334 
L 1100 2734 
z
M 1663 3691 
Q 2388 3341 2981 2984 
L 2700 2559 
Q 2119 2934 1419 3322 
L 1663 3691 
z
" transform="scale(0.015625)"/>
       <path id="MicrosoftYaHei-9645" d="M 2256 1678 
Q 2419 503 1656 334 
Q 1413 284 1025 328 
Q 975 584 888 834 
Q 1219 753 1469 784 
Q 1906 834 1763 1678 
Q 1675 2166 1169 2828 
Q 1425 3591 1681 4491 
L 850 4491 
L 850 -841 
L 375 -841 
L 375 4953 
L 2200 4953 
L 2200 4503 
Q 1913 3572 1694 2884 
Q 2194 2203 2256 1678 
z
M 2150 3228 
L 6225 3228 
L 6225 2766 
L 4425 2766 
L 4425 16 
Q 4425 -747 3688 -747 
Q 3394 -747 2938 -741 
Q 2881 -403 2838 -209 
Q 3313 -259 3575 -259 
Q 3938 -259 3938 122 
L 3938 2766 
L 2150 2766 
L 2150 3228 
z
M 2488 4803 
L 5888 4803 
L 5888 4341 
L 2488 4341 
L 2488 4803 
z
M 2969 2097 
L 3431 1928 
Q 2988 747 2481 -222 
Q 2206 -72 2038 -3 
Q 2594 1003 2969 2097 
z
M 4900 1872 
L 5331 2084 
Q 5844 1041 6300 53 
L 5844 -166 
Q 5494 641 4900 1872 
z
" transform="scale(0.015625)"/>
       <path id="MicrosoftYaHei-6a21" d="M 2050 984 
L 3859 984 
Q 3900 1213 3913 1547 
L 2950 1547 
L 2950 1372 
L 2500 1372 
L 2500 3634 
L 5844 3634 
L 5844 1372 
L 5394 1372 
L 5394 1547 
L 4344 1547 
Q 4325 1203 4288 984 
L 6250 984 
L 6250 584 
L 4525 584 
Q 5203 -175 6319 -341 
Q 6144 -572 6013 -809 
Q 4803 -456 4128 466 
Q 3681 -431 2075 -847 
Q 1969 -628 1831 -416 
Q 3303 -106 3713 584 
L 2050 584 
L 2050 984 
z
M 63 1409 
Q 603 2316 922 3509 
L 138 3509 
L 138 3922 
L 1006 3922 
L 1006 5309 
L 1444 5309 
L 1444 3922 
L 2256 3922 
L 2256 3509 
L 1444 3509 
L 1444 2684 
L 1688 2884 
Q 2044 2503 2350 2116 
L 2006 1828 
Q 1719 2244 1444 2563 
L 1444 -822 
L 1006 -822 
L 1006 2581 
Q 672 1438 275 859 
Q 188 1128 63 1409 
z
M 4713 5303 
L 5150 5303 
L 5150 4703 
L 6225 4703 
L 6225 4303 
L 5150 4303 
L 5150 3797 
L 4713 3797 
L 4713 4303 
L 3600 4303 
L 3600 3797 
L 3163 3797 
L 3163 4303 
L 2175 4303 
L 2175 4703 
L 3163 4703 
L 3163 5309 
L 3600 5309 
L 3600 4703 
L 4713 4703 
L 4713 5303 
z
M 5394 3247 
L 2950 3247 
L 2950 2778 
L 5394 2778 
L 5394 3247 
z
M 2950 1934 
L 5394 1934 
L 5394 2403 
L 2950 2403 
L 2950 1934 
z
" transform="scale(0.015625)"/>
       <path id="MicrosoftYaHei-578b" d="M 150 3503 
L 1100 3503 
Q 1106 3638 1106 4547 
L 413 4547 
L 413 4959 
L 3675 4959 
L 3675 4547 
L 2994 4547 
L 2994 3503 
L 3881 3503 
L 3881 3091 
L 2994 3091 
L 2994 1747 
L 2538 1747 
L 2538 3091 
L 1528 3091 
Q 1450 2191 638 1534 
Q 475 1716 294 1897 
Q 1013 2453 1066 3091 
L 150 3091 
L 150 3503 
z
M 138 -103 
L 2938 -103 
L 2938 741 
L 706 741 
L 706 1172 
L 2938 1172 
L 2938 1659 
L 3425 1659 
L 3425 1172 
L 5713 1172 
L 5713 741 
L 3425 741 
L 3425 -103 
L 6256 -103 
L 6256 -534 
L 138 -534 
L 138 -103 
z
M 5856 5209 
L 5856 2334 
Q 5856 1672 5200 1659 
Q 4825 1647 4331 1659 
Q 4306 1897 4256 2153 
Q 4781 2122 5044 2122 
Q 5400 2122 5400 2516 
L 5400 5209 
L 5856 5209 
z
M 1556 3503 
L 2538 3503 
L 2538 4547 
L 1563 4547 
Q 1563 3791 1556 3503 
z
M 4138 4859 
L 4588 4859 
L 4588 2697 
L 4138 2697 
L 4138 4859 
z
" transform="scale(0.015625)"/>
       <path id="MicrosoftYaHei-8bf7" d="M 2788 -791 
L 2300 -791 
L 2300 2378 
L 5775 2378 
L 5775 -53 
Q 5775 -728 5081 -734 
Q 4713 -741 4138 -741 
Q 4106 -541 4044 -259 
Q 4588 -297 4931 -297 
Q 5288 -297 5288 28 
L 5288 341 
L 2788 341 
L 2788 -791 
z
M 1750 3153 
L 3769 3153 
L 3769 3584 
L 2169 3584 
L 2169 3978 
L 3769 3978 
L 3769 4397 
L 1950 4397 
L 1950 4791 
L 3769 4791 
L 3769 5353 
L 4275 5353 
L 4275 4791 
L 6181 4791 
L 6181 4397 
L 4275 4397 
L 4275 3978 
L 6019 3978 
L 6019 3584 
L 4275 3584 
L 4275 3153 
L 6306 3153 
L 6306 2759 
L 1750 2759 
L 1750 3153 
z
M 2056 753 
Q 2075 441 2100 209 
Q 1425 -241 956 -603 
L 669 -191 
Q 881 9 881 353 
L 881 2716 
L 119 2716 
L 119 3172 
L 1356 3172 
L 1356 259 
Q 1706 497 2056 753 
z
M 5288 1978 
L 2788 1978 
L 2788 1547 
L 5288 1547 
L 5288 1978 
z
M 2788 728 
L 5288 728 
L 5288 1159 
L 2788 1159 
L 2788 728 
z
M 825 5141 
Q 1338 4634 1731 4197 
L 1294 3834 
Q 863 4391 450 4822 
L 825 5141 
z
" transform="scale(0.015625)"/>
       <path id="MicrosoftYaHei-6c42" d="M 225 4178 
L 2969 4178 
L 2969 5309 
L 3494 5309 
L 3494 4178 
L 6225 4178 
L 6225 3728 
L 3494 3728 
L 3494 3341 
Q 3800 2641 4219 2066 
Q 4869 2628 5444 3316 
L 5888 2947 
Q 5119 2184 4525 1684 
Q 5275 809 6319 284 
Q 6088 16 5944 -203 
Q 4331 741 3494 2322 
L 3494 28 
Q 3494 -778 2650 -778 
Q 2200 -778 1819 -766 
Q 1781 -509 1719 -209 
Q 2213 -266 2525 -266 
Q 2969 -266 2969 191 
L 2969 1372 
Q 1494 616 400 -3 
L 131 509 
Q 1438 1116 2969 1953 
L 2969 3728 
L 225 3728 
L 225 4178 
z
M 1144 3353 
Q 1644 2859 2163 2247 
Q 1969 2084 1731 1897 
Q 1294 2466 769 3047 
L 1144 3353 
z
M 4069 4978 
L 4369 5309 
Q 4963 4934 5313 4628 
L 4975 4253 
Q 4606 4578 4069 4978 
z
" transform="scale(0.015625)"/>
       <path id="MicrosoftYaHei-20" transform="scale(0.015625)"/>
       <path id="MicrosoftYaHei-2f" d="M 2791 4841 
L 469 -803 
L -103 -803 
L 2219 4841 
L 2791 4841 
z
" transform="scale(0.015625)"/>
       <path id="MicrosoftYaHei-6b21" d="M 4119 3472 
Q 4113 3159 4091 2856 
Q 4509 728 6319 -284 
Q 6063 -559 5913 -772 
Q 4344 331 3900 1944 
Q 3491 200 1650 -866 
Q 1525 -672 1306 -422 
Q 3225 591 3525 2428 
Q 3613 2878 3619 3472 
L 4119 3472 
z
M 4944 2647 
Q 5225 3166 5450 3766 
L 2991 3766 
Q 2719 3144 2388 2572 
Q 2163 2734 1938 2841 
Q 2669 4034 3000 5309 
L 3506 5166 
Q 3356 4675 3175 4209 
L 5988 4209 
L 5988 3766 
Q 5731 3072 5425 2466 
Q 5213 2572 4944 2647 
z
M 1388 2622 
Q 1675 2403 1875 2284 
Q 1075 859 575 -178 
L 69 153 
Q 713 1128 1388 2622 
z
M 644 4916 
Q 1150 4409 1781 3672 
L 1375 3297 
Q 769 4097 281 4591 
L 644 4916 
z
" transform="scale(0.015625)"/>
      </defs>
      <use xlink:href="#MicrosoftYaHei-6bcf"/>
      <use xlink:href="#MicrosoftYaHei-4f8b" transform="translate(100 0)"/>
      <use xlink:href="#MicrosoftYaHei-5b9e" transform="translate(200 0)"/>
      <use xlink:href="#MicrosoftYaHei-9645" transform="translate(300 0)"/>
      <use xlink:href="#MicrosoftYaHei-6a21" transform="translate(400 0)"/>
      <use xlink:href="#MicrosoftYaHei-578b" transform="translate(500 0)"/>
      <use xlink:href="#MicrosoftYaHei-8bf7" transform="translate(600 0)"/>
      <use xlink:href="#MicrosoftYaHei-6c42" transform="translate(700 0)"/>
      <use xlink:href="#MicrosoftYaHei-20" transform="translate(800 0)"/>
      <use xlink:href="#MicrosoftYaHei-2f" transform="translate(829.589844 0)"/>
      <use xlink:href="#MicrosoftYaHei-20" transform="translate(872.314453 0)"/>
      <use xlink:href="#MicrosoftYaHei-6b21" transform="translate(901.904297 0)"/>
     </g>
    </g>
   </g>
   <g id="matplotlib.axis_2">
    <g id="ytick_1">
     <g id="line2d_11"/>
     <g id="text_7">
      <!-- UAF -->
      <g style="fill: #1d1d1f" transform="translate(107.437344 81.465233) scale(0.17 -0.17)">
       <defs>
        <path id="MicrosoftYaHei-55" d="M 4213 1972 
Q 4213 -81 2350 -81 
Q 566 -81 566 1900 
L 566 4841 
L 1191 4841 
L 1191 1928 
Q 1191 475 2409 475 
Q 3588 475 3588 1881 
L 3588 4841 
L 4213 4841 
L 4213 1972 
z
" transform="scale(0.015625)"/>
        <path id="MicrosoftYaHei-41" d="M 4428 0 
L 3738 0 
L 3244 1325 
L 1228 1325 
L 763 0 
L 72 0 
L 1916 4841 
L 2584 4841 
L 4428 0 
z
M 3050 1872 
L 2319 3884 
Q 2284 3981 2244 4222 
L 2228 4222 
Q 2194 4003 2150 3884 
L 1425 1872 
L 3050 1872 
z
" transform="scale(0.015625)"/>
        <path id="MicrosoftYaHei-46" d="M 3119 4284 
L 1250 4284 
L 1250 2666 
L 2981 2666 
L 2981 2116 
L 1250 2116 
L 1250 0 
L 625 0 
L 625 4841 
L 3119 4841 
L 3119 4284 
z
" transform="scale(0.015625)"/>
       </defs>
       <use xlink:href="#MicrosoftYaHei-55"/>
       <use xlink:href="#MicrosoftYaHei-41" transform="translate(72.533203 0)"/>
       <use xlink:href="#MicrosoftYaHei-46" transform="translate(142.894531 0)"/>
      </g>
     </g>
    </g>
    <g id="ytick_2">
     <g id="line2d_12"/>
     <g id="text_8">
      <!-- 内存泄漏 -->
      <g style="fill: #1d1d1f" transform="translate(72.76 130.163415) scale(0.17 -0.17)">
       <defs>
        <path id="MicrosoftYaHei-5185" d="M 638 4184 
L 2944 4184 
L 2944 5259 
L 3456 5259 
L 3456 4184 
L 5750 4184 
L 5750 59 
Q 5750 -734 4969 -728 
Q 4556 -728 3956 -716 
Q 3938 -503 3863 -172 
Q 4456 -222 4850 -228 
Q 5244 -241 5244 166 
L 5244 3709 
L 3444 3709 
Q 3419 3141 3306 2697 
Q 4413 1809 5094 1134 
L 4713 728 
Q 4044 1459 3156 2247 
Q 2731 1328 1538 647 
Q 1275 1009 1188 1097 
Q 2206 1634 2581 2291 
Q 2881 2772 2931 3709 
L 1144 3709 
L 1144 -784 
L 638 -784 
L 638 4184 
z
" transform="scale(0.015625)"/>
        <path id="MicrosoftYaHei-5b58" d="M 169 4641 
L 1925 4641 
Q 2053 4991 2163 5359 
L 2675 5228 
Q 2578 4928 2472 4641 
L 6275 4641 
L 6275 4178 
L 2291 4178 
Q 1963 3384 1563 2709 
L 1563 -797 
L 1081 -797 
L 1081 1984 
Q 747 1528 369 1141 
Q 244 1359 69 1591 
Q 1113 2688 1744 4178 
L 169 4178 
L 169 4641 
z
M 1838 1791 
L 3994 1791 
L 3994 2203 
Q 4656 2628 5156 3047 
L 2256 3047 
L 2256 3503 
L 5869 3503 
L 5869 2997 
Q 5231 2491 4475 1978 
L 4475 1791 
L 6319 1791 
L 6319 1334 
L 4475 1334 
L 4475 -72 
Q 4475 -784 3763 -784 
Q 3425 -784 2856 -766 
Q 2825 -528 2775 -259 
Q 3375 -322 3663 -322 
Q 3994 -322 3994 9 
L 3994 1334 
L 1838 1334 
L 1838 1791 
z
" transform="scale(0.015625)"/>
        <path id="MicrosoftYaHei-6cc4" d="M 3531 5266 
L 4038 5266 
L 4038 3678 
L 4938 3678 
L 4938 5259 
L 5444 5259 
L 5444 3678 
L 6306 3678 
L 6306 3222 
L 5444 3222 
L 5444 672 
L 4938 672 
L 4938 1116 
L 4038 1116 
L 4038 678 
L 3531 678 
L 3531 3222 
L 2663 3222 
L 2663 -59 
L 6181 -59 
L 6181 -516 
L 2156 -516 
L 2156 3222 
L 1581 3222 
L 1581 3678 
L 2156 3678 
L 2156 4953 
L 2663 4953 
L 2663 3678 
L 3531 3678 
L 3531 5266 
z
M 4038 1572 
L 4938 1572 
L 4938 3222 
L 4038 3222 
L 4038 1572 
z
M 994 1784 
Q 1231 1659 1488 1547 
Q 1138 416 781 -741 
L 256 -503 
Q 700 597 994 1784 
z
M 400 3603 
Q 1038 3141 1481 2759 
Q 1250 2491 1119 2347 
Q 594 2828 88 3241 
L 400 3603 
z
M 700 5222 
Q 1344 4722 1781 4341 
Q 1569 4122 1406 3941 
Q 881 4453 375 4878 
L 700 5222 
z
" transform="scale(0.015625)"/>
        <path id="MicrosoftYaHei-6f0f" d="M 2838 -803 
L 2413 -803 
L 2413 2159 
L 3969 2159 
L 3969 2709 
L 2206 2709 
Q 2194 359 1413 -772 
Q 1200 -578 988 -434 
Q 1744 559 1744 2766 
L 1744 5053 
L 5913 5053 
L 5913 3422 
L 5463 3422 
L 5463 3641 
L 2206 3641 
L 2206 3109 
L 6269 3109 
L 6269 2709 
L 4394 2709 
L 4394 2159 
L 6038 2159 
L 6038 -16 
Q 6038 -772 5363 -772 
Q 5025 -772 4763 -766 
Q 4738 -566 4669 -316 
Q 4994 -353 5238 -353 
Q 5613 -353 5613 47 
L 5613 1772 
L 4394 1772 
L 4394 -722 
L 3969 -722 
L 3969 1772 
L 2838 1772 
L 2838 -803 
z
M 5463 4653 
L 2206 4653 
L 2206 4041 
L 5463 4041 
L 5463 4653 
z
M 719 1791 
Q 981 1678 1219 1597 
Q 931 453 675 -772 
L 138 -616 
Q 450 403 719 1791 
z
M 356 3578 
Q 925 3147 1381 2741 
Q 1150 2484 1019 2341 
Q 525 2816 44 3222 
L 356 3578 
z
M 575 5216 
Q 1006 4878 1469 4466 
Q 1275 4266 1113 4084 
Q 700 4516 263 4878 
L 575 5216 
z
M 2963 403 
L 3175 678 
Q 3513 484 3850 253 
L 3619 -34 
Q 3313 191 2963 403 
z
M 3013 1291 
L 3219 1559 
Q 3575 1366 3869 1166 
L 3650 872 
Q 3356 1084 3013 1291 
z
M 4550 391 
L 4756 653 
Q 5156 422 5419 241 
L 5206 -41 
Q 4869 197 4550 391 
z
M 4625 1253 
L 4819 1516 
Q 5156 1341 5488 1141 
L 5288 859 
Q 4963 1078 4625 1253 
z
" transform="scale(0.015625)"/>
       </defs>
       <use xlink:href="#MicrosoftYaHei-5185"/>
       <use xlink:href="#MicrosoftYaHei-5b58" transform="translate(100 0)"/>
       <use xlink:href="#MicrosoftYaHei-6cc4" transform="translate(200 0)"/>
       <use xlink:href="#MicrosoftYaHei-6f0f" transform="translate(300 0)"/>
      </g>
     </g>
    </g>
    <g id="ytick_3">
     <g id="line2d_13"/>
     <g id="text_9">
      <!-- 锁顺序 -->
      <g style="fill: #1d1d1f" transform="translate(89.76 178.861597) scale(0.17 -0.17)">
       <defs>
        <path id="MicrosoftYaHei-9501" d="M 2513 3491 
L 4013 3491 
L 4013 5266 
L 4488 5266 
L 4488 3491 
L 6000 3491 
L 6000 553 
L 5525 553 
L 5525 3053 
L 2988 3053 
L 2988 553 
L 2513 553 
L 2513 3491 
z
M 2263 541 
Q 2269 241 2294 22 
Q 1863 -191 1375 -484 
Q 1263 -547 1113 -697 
L 781 -266 
Q 981 -78 981 203 
L 981 1559 
L 144 1559 
L 144 1991 
L 981 1991 
L 981 2834 
L 563 2834 
L 563 3266 
L 2169 3266 
L 2169 2834 
L 1438 2834 
L 1438 1991 
L 2263 1991 
L 2263 1559 
L 1438 1559 
L 1438 78 
Q 1831 291 2263 541 
z
M 4019 2716 
L 4500 2716 
Q 4506 1191 4369 816 
Q 5381 197 6288 -441 
L 5950 -859 
Q 5081 -178 4188 391 
Q 3638 -516 2238 -928 
Q 2094 -716 1919 -484 
Q 3931 3 3994 1522 
Q 4019 1928 4019 2716 
z
M 69 3384 
Q 663 4228 1038 5316 
L 1506 5159 
Q 1338 4741 1144 4353 
L 2275 4353 
L 2275 3922 
L 919 3922 
Q 644 3416 331 2959 
Q 213 3184 69 3384 
z
M 5000 3884 
Q 5444 4441 5775 4978 
L 6219 4722 
Q 5850 4184 5388 3609 
L 5000 3884 
z
M 2294 4722 
L 2675 4959 
Q 3063 4478 3463 3903 
L 3031 3628 
Q 2675 4222 2294 4722 
z
" transform="scale(0.015625)"/>
        <path id="MicrosoftYaHei-987a" d="M 3175 3728 
L 4131 3728 
L 4288 4516 
L 2963 4516 
L 2963 4941 
L 6281 4941 
L 6281 4516 
L 4788 4516 
L 4606 3728 
L 6006 3728 
L 6006 572 
L 5556 572 
L 5556 3303 
L 3625 3303 
L 3625 572 
L 3175 572 
L 3175 3728 
z
M 4388 2916 
L 4838 2916 
Q 4838 1434 4750 1066 
Q 4719 878 4663 709 
Q 5588 122 6344 -447 
L 6019 -853 
Q 5313 -272 4481 303 
Q 4056 -466 3038 -916 
Q 2913 -734 2731 -516 
Q 4119 72 4300 1153 
Q 4388 1497 4388 2916 
z
M 513 5116 
L 950 5116 
L 950 2728 
Q 950 191 406 -841 
Q 225 -659 44 -497 
Q 513 403 513 2441 
L 513 5116 
z
M 2225 5141 
L 2663 5141 
L 2663 -591 
L 2225 -591 
L 2225 5141 
z
M 1363 4928 
L 1800 4928 
L 1800 -303 
L 1363 -303 
L 1363 4928 
z
" transform="scale(0.015625)"/>
        <path id="MicrosoftYaHei-5e8f" d="M 1438 1966 
L 3634 1966 
Q 3053 2394 2525 2722 
L 2825 3041 
Q 3294 2756 3719 2478 
L 4850 3147 
L 1806 3147 
L 1806 3597 
L 5756 3597 
L 5756 3141 
L 4141 2191 
Q 4219 2138 4294 2084 
L 4128 1966 
L 6181 1966 
L 6181 1503 
L 5638 384 
Q 5450 484 5175 609 
L 5619 1509 
L 4119 1509 
L 4119 22 
Q 4119 -734 3400 -734 
Q 3019 -734 2463 -722 
Q 2438 -509 2388 -184 
Q 2881 -253 3250 -253 
Q 3606 -253 3606 103 
L 3606 1509 
L 1438 1509 
L 1438 1966 
z
M 2981 5147 
L 3431 5391 
Q 3675 5078 3881 4747 
L 3584 4572 
L 6244 4572 
L 6244 4116 
L 1263 4116 
L 1263 2416 
Q 1263 191 406 -872 
Q 256 -666 50 -447 
Q 738 353 738 2291 
L 738 4572 
L 3369 4572 
Q 3178 4884 2981 5147 
z
" transform="scale(0.015625)"/>
       </defs>
       <use xlink:href="#MicrosoftYaHei-9501"/>
       <use xlink:href="#MicrosoftYaHei-987a" transform="translate(100 0)"/>
       <use xlink:href="#MicrosoftYaHei-5e8f" transform="translate(200 0)"/>
      </g>
     </g>
    </g>
    <g id="ytick_4">
     <g id="line2d_14"/>
     <g id="text_10">
      <!-- 原子态睡眠 -->
      <g style="fill: #1d1d1f" transform="translate(55.76 227.559778) scale(0.17 -0.17)">
       <defs>
        <path id="MicrosoftYaHei-539f" d="M 1950 3853 
L 3081 3853 
Q 3200 4153 3306 4472 
L 1256 4472 
L 1256 2772 
Q 1256 1322 1088 634 
Q 919 -103 394 -866 
Q 238 -653 44 -434 
Q 475 209 613 834 
Q 756 1428 756 2659 
L 756 4928 
L 6219 4928 
L 6219 4472 
L 3856 4472 
Q 3716 4134 3584 3853 
L 5719 3853 
L 5719 1291 
L 5250 1291 
L 5250 1416 
L 4094 1416 
L 4094 16 
Q 4094 -772 3381 -766 
Q 3163 -766 2594 -753 
Q 2569 -516 2513 -209 
Q 3000 -272 3281 -272 
Q 3594 -272 3594 91 
L 3594 1416 
L 2419 1416 
L 2419 1291 
L 1950 1291 
L 1950 3853 
z
M 2419 1834 
L 5250 1834 
L 5250 2434 
L 2419 2434 
L 2419 1834 
z
M 5250 3434 
L 2419 3434 
L 2419 2841 
L 5250 2841 
L 5250 3434 
z
M 2488 1172 
L 2919 891 
Q 2313 -9 1613 -703 
Q 1450 -566 1206 -397 
Q 1838 184 2488 1172 
z
M 4925 1159 
Q 5738 391 6313 -266 
L 5894 -641 
Q 5294 122 4556 859 
L 4925 1159 
z
" transform="scale(0.015625)"/>
        <path id="MicrosoftYaHei-5b50" d="M 125 2497 
L 3031 2497 
L 3031 3184 
L 4825 4491 
L 781 4491 
L 781 4959 
L 5656 4959 
L 5656 4472 
L 3563 2941 
L 3563 2497 
L 6300 2497 
L 6300 2028 
L 3563 2028 
L 3563 59 
Q 3563 -778 2688 -778 
Q 2400 -778 1700 -766 
Q 1675 -516 1625 -197 
Q 2081 -253 2588 -259 
Q 3031 -259 3031 191 
L 3031 2028 
L 125 2028 
L 125 2497 
z
" transform="scale(0.015625)"/>
        <path id="MicrosoftYaHei-6001" d="M 325 4434 
L 2888 4434 
Q 2972 4822 2969 5328 
L 3438 5328 
Q 3444 4841 3372 4434 
L 6075 4434 
L 6075 3991 
L 3528 3991 
Q 4419 2706 6231 2241 
Q 6050 2034 5881 1759 
Q 4041 2394 3172 3772 
Q 2975 3331 2588 2953 
Q 3078 2616 3538 2259 
L 3225 1891 
Q 2828 2244 2259 2675 
Q 1556 2138 388 1703 
Q 294 1922 113 2178 
Q 2250 2866 2750 3991 
L 325 3991 
L 325 4434 
z
M 1713 1547 
L 2200 1547 
L 2200 203 
Q 2200 -172 2575 -172 
L 3763 -172 
Q 4175 -172 4256 134 
Q 4331 428 4381 1028 
Q 4556 953 4863 847 
Q 4763 128 4706 -47 
Q 4563 -616 3869 -616 
L 2488 -616 
Q 1713 -616 1713 172 
L 1713 1547 
z
M 813 1447 
L 1281 1297 
Q 1038 522 663 -297 
Q 463 -203 194 -116 
Q 569 591 813 1447 
z
M 4894 1272 
L 5263 1553 
Q 5781 972 6306 309 
L 5888 -9 
Q 5425 641 4894 1272 
z
M 2594 1503 
L 2913 1809 
Q 3419 1403 3850 991 
L 3488 641 
Q 3094 1059 2594 1503 
z
" transform="scale(0.015625)"/>
        <path id="MicrosoftYaHei-7761" d="M 2356 -116 
L 3950 -116 
L 3950 734 
L 2225 734 
L 2225 1134 
L 2825 1134 
L 2825 2041 
L 2088 2041 
L 2088 2453 
L 2825 2453 
L 2825 3353 
L 2213 3353 
L 2213 3753 
L 3950 3753 
L 3950 4503 
Q 3184 4456 2413 4428 
Q 2375 4641 2325 4872 
Q 3994 4916 5869 5103 
L 5956 4653 
Q 5175 4584 4388 4531 
L 4388 3753 
L 6125 3753 
L 6125 3353 
L 5513 3353 
L 5513 2453 
L 6306 2453 
L 6306 2041 
L 5513 2041 
L 5513 1134 
L 6138 1134 
L 6138 734 
L 4388 734 
L 4388 -116 
L 5994 -116 
L 5994 -516 
L 2356 -516 
L 2356 -116 
z
M 338 4859 
L 1938 4859 
L 1938 -434 
L 1500 -434 
L 1500 9 
L 775 9 
L 775 -609 
L 338 -609 
L 338 4859 
z
M 775 441 
L 1500 441 
L 1500 1503 
L 775 1503 
L 775 441 
z
M 1500 4428 
L 775 4428 
L 775 3384 
L 1500 3384 
L 1500 4428 
z
M 775 1922 
L 1500 1922 
L 1500 2966 
L 775 2966 
L 775 1922 
z
M 3250 1134 
L 3950 1134 
L 3950 2041 
L 3250 2041 
L 3250 1134 
z
M 4388 1134 
L 5088 1134 
L 5088 2041 
L 4388 2041 
L 4388 1134 
z
M 3250 2453 
L 3950 2453 
L 3950 3353 
L 3250 3353 
L 3250 2453 
z
M 4388 2453 
L 5088 2453 
L 5088 3353 
L 4388 3353 
L 4388 2453 
z
" transform="scale(0.015625)"/>
        <path id="MicrosoftYaHei-7720" d="M 2650 5016 
L 6013 5016 
L 6013 2828 
L 5550 2828 
L 5550 3103 
L 4709 3103 
Q 4709 2516 4734 2084 
L 6288 2084 
L 6288 1647 
L 4769 1647 
Q 4884 453 5300 -28 
Q 5488 -253 5650 -253 
Q 5800 -253 5831 -59 
Q 5888 272 5925 778 
Q 6163 666 6363 616 
Q 6313 116 6244 -247 
Q 6138 -797 5738 -797 
Q 5300 -797 4900 -278 
Q 4438 353 4309 1647 
L 3125 1647 
L 3125 -28 
Q 3613 241 4163 572 
Q 4206 278 4256 72 
Q 3744 -209 3106 -603 
Q 2931 -716 2756 -872 
L 2444 -453 
Q 2650 -278 2650 59 
L 2650 5016 
z
M 425 4978 
L 2138 4978 
L 2138 -503 
L 1688 -503 
L 1688 -66 
L 875 -66 
L 875 -584 
L 425 -584 
L 425 4978 
z
M 5550 4591 
L 3125 4591 
L 3125 3528 
L 5550 3528 
L 5550 4591 
z
M 4238 3103 
L 3125 3103 
L 3125 2084 
L 4272 2084 
Q 4247 2500 4238 3103 
z
M 875 372 
L 1688 372 
L 1688 1491 
L 875 1491 
L 875 372 
z
M 1688 4541 
L 875 4541 
L 875 3441 
L 1688 3441 
L 1688 4541 
z
M 875 1916 
L 1688 1916 
L 1688 3016 
L 875 3016 
L 875 1916 
z
" transform="scale(0.015625)"/>
       </defs>
       <use xlink:href="#MicrosoftYaHei-539f"/>
       <use xlink:href="#MicrosoftYaHei-5b50" transform="translate(100 0)"/>
       <use xlink:href="#MicrosoftYaHei-6001" transform="translate(200 0)"/>
       <use xlink:href="#MicrosoftYaHei-7761" transform="translate(300 0)"/>
       <use xlink:href="#MicrosoftYaHei-7720" transform="translate(400 0)"/>
      </g>
     </g>
    </g>
    <g id="ytick_5">
     <g id="line2d_15"/>
     <g id="text_11">
      <!-- OOM -->
      <g style="fill: #1d1d1f" transform="translate(96.440469 276.25796) scale(0.17 -0.17)">
       <defs>
        <path id="MicrosoftYaHei-4f" d="M 313 2363 
Q 313 3534 947 4228 
Q 1581 4922 2666 4922 
Q 3675 4922 4290 4244 
Q 4906 3566 4906 2478 
Q 4906 1300 4275 609 
Q 3644 -81 2588 -81 
Q 1556 -81 934 597 
Q 313 1275 313 2363 
z
M 969 2413 
Q 969 1534 1417 1004 
Q 1866 475 2588 475 
Q 3363 475 3805 983 
Q 4247 1491 4247 2403 
Q 4247 3341 3814 3850 
Q 3381 4359 2628 4359 
Q 1888 4359 1428 3821 
Q 969 3284 969 2413 
z
" transform="scale(0.015625)"/>
        <path id="MicrosoftYaHei-4d" d="M 5003 0 
L 5003 3206 
Q 5003 3603 5050 4159 
L 5034 4159 
Q 4953 3809 4891 3672 
L 3294 0 
L 2947 0 
L 1353 3644 
Q 1297 3769 1209 4159 
L 1191 4159 
Q 1222 3822 1222 3178 
L 1222 0 
L 625 0 
L 625 4841 
L 1472 4841 
L 2900 1522 
Q 3063 1141 3116 928 
L 3138 928 
Q 3300 1375 3366 1534 
L 4819 4841 
L 5625 4841 
L 5625 0 
L 5003 0 
z
" transform="scale(0.015625)"/>
       </defs>
       <use xlink:href="#MicrosoftYaHei-4f"/>
       <use xlink:href="#MicrosoftYaHei-4f" transform="translate(81.494141 0)"/>
       <use xlink:href="#MicrosoftYaHei-4d" transform="translate(162.988281 0)"/>
      </g>
     </g>
    </g>
    <g id="ytick_6">
     <g id="line2d_16"/>
     <g id="text_12">
      <!-- 健康基线 -->
      <g style="fill: #1d1d1f" transform="translate(72.76 324.956142) scale(0.17 -0.17)">
       <defs>
        <path id="MicrosoftYaHei-5065" d="M 3069 997 
L 4194 997 
L 4194 1547 
L 3213 1547 
L 3213 1897 
L 4194 1897 
L 4194 2447 
L 3300 2447 
L 3300 2797 
L 4194 2797 
L 4194 3341 
L 2988 3341 
L 2988 3703 
L 4194 3703 
L 4194 4247 
L 3313 4247 
L 3313 4597 
L 4194 4597 
L 4194 5247 
L 4619 5247 
L 4619 4597 
L 5744 4597 
L 5744 3703 
L 6263 3703 
L 6263 3341 
L 5744 3341 
L 5744 2297 
L 5325 2297 
L 5325 2447 
L 4619 2447 
L 4619 1897 
L 5850 1897 
L 5850 1547 
L 4619 1547 
L 4619 997 
L 5944 997 
L 5944 647 
L 4619 647 
L 4619 -3 
L 4194 -3 
L 4194 647 
L 3069 647 
L 3069 997 
z
M 1850 1959 
Q 1994 1297 2281 841 
Q 2556 1534 2569 2372 
L 1638 2372 
L 1638 2784 
L 2500 4222 
L 1675 4222 
L 1675 4622 
L 3000 4622 
L 3000 4216 
L 2131 2772 
L 3000 2772 
L 3000 2341 
Q 2975 1297 2594 447 
Q 3263 -216 4431 -178 
Q 5338 -191 6319 -141 
Q 6225 -378 6125 -641 
Q 5263 -641 4381 -628 
Q 3125 -647 2381 34 
Q 2100 -447 1688 -866 
Q 1513 -659 1356 -522 
Q 1788 -103 2069 391 
Q 1663 947 1481 1803 
L 1850 1959 
z
M 56 2259 
Q 869 3603 1225 5291 
L 1656 5184 
Q 1488 4416 1225 3709 
L 1225 -816 
L 813 -816 
L 813 2753 
Q 556 2241 250 1766 
Q 169 2034 56 2259 
z
M 5325 2797 
L 5325 3341 
L 4619 3341 
L 4619 2797 
L 5325 2797 
z
M 5325 4247 
L 4619 4247 
L 4619 3703 
L 5325 3703 
L 5325 4247 
z
" transform="scale(0.015625)"/>
        <path id="MicrosoftYaHei-5eb7" d="M 3100 5116 
L 3531 5347 
Q 3719 5047 3931 4672 
L 6194 4672 
L 6194 4259 
L 1213 4259 
L 1213 2866 
L 3319 2866 
L 3319 3334 
L 1606 3334 
L 1606 3709 
L 3319 3709 
L 3319 4122 
L 3769 4122 
L 3769 3709 
L 5569 3709 
L 5569 2866 
L 6275 2866 
L 6275 2484 
L 5569 2484 
L 5569 1503 
L 5144 1503 
L 5144 1634 
L 3769 1634 
L 3769 1497 
Q 4075 1122 4425 816 
Q 5063 1147 5563 1466 
L 5856 1097 
Q 5356 828 4763 547 
Q 5419 53 6213 -203 
Q 6025 -453 5900 -641 
Q 4519 -34 3769 891 
L 3769 -134 
Q 3769 -797 3081 -797 
Q 2794 -797 2325 -784 
Q 2300 -528 2250 -291 
Q 2756 -334 3006 -334 
Q 3306 -334 3319 -22 
L 3319 353 
Q 2350 28 1225 -353 
L 1106 91 
Q 2394 466 3319 784 
L 3319 1634 
L 1569 1634 
L 1569 2009 
L 3319 2009 
L 3319 2484 
L 1213 2484 
L 1213 2328 
Q 1213 328 431 -853 
Q 275 -641 88 -428 
Q 738 603 738 2303 
L 738 4672 
L 3369 4672 
Q 3244 4878 3100 5116 
z
M 5144 2009 
L 5144 2484 
L 3769 2484 
L 3769 2009 
L 5144 2009 
z
M 5144 3334 
L 3769 3334 
L 3769 2866 
L 5144 2866 
L 5144 3334 
z
M 1531 1172 
L 1781 1478 
Q 2275 1197 2650 922 
L 2363 572 
Q 1988 884 1531 1172 
z
" transform="scale(0.015625)"/>
        <path id="MicrosoftYaHei-57fa" d="M 6319 697 
Q 6113 441 5981 247 
Q 5406 519 4925 897 
L 4925 553 
L 3431 553 
L 3431 -97 
L 5875 -97 
L 5875 -503 
L 519 -503 
L 519 -97 
L 2963 -97 
L 2963 553 
L 1450 553 
L 1450 894 
Q 953 478 413 172 
Q 294 341 88 566 
Q 1050 1034 1753 1753 
L 156 1753 
L 156 2159 
L 1400 2159 
L 1400 4253 
L 350 4253 
L 350 4659 
L 1400 4659 
L 1400 5334 
L 1869 5334 
L 1869 4659 
L 4550 4659 
L 4550 5334 
L 5019 5334 
L 5019 4659 
L 6069 4659 
L 6069 4253 
L 5019 4253 
L 5019 2159 
L 6244 2159 
L 6244 1753 
L 4600 1753 
Q 5303 1053 6319 697 
z
M 2963 1553 
L 3431 1553 
L 3431 947 
L 4863 947 
Q 4416 1306 4047 1753 
L 2325 1753 
Q 1934 1309 1513 947 
L 2963 947 
L 2963 1553 
z
M 1869 2159 
L 4550 2159 
L 4550 2603 
L 1869 2603 
L 1869 2159 
z
M 1869 2991 
L 4550 2991 
L 4550 3428 
L 1869 3428 
L 1869 2991 
z
M 1869 3816 
L 4550 3816 
L 4550 4253 
L 1869 4253 
L 1869 3816 
z
" transform="scale(0.015625)"/>
        <path id="MicrosoftYaHei-7ebf" d="M 1969 -347 
Q 3144 75 4003 631 
Q 3781 1197 3653 1972 
L 2319 1784 
L 2244 2234 
L 3591 2422 
Q 3538 2859 3513 3356 
L 2381 3228 
L 2306 3678 
L 3488 3809 
Q 3453 4459 3425 5303 
L 3938 5303 
Q 3953 4497 3978 3866 
L 6069 4103 
L 6125 3659 
L 3997 3413 
Q 4019 2919 4069 2488 
L 6225 2791 
L 6281 2347 
L 4128 2041 
Q 4234 1394 4416 916 
Q 5078 1416 5519 2009 
L 5925 1703 
Q 5363 1025 4619 475 
Q 4859 44 5194 -184 
Q 5606 -428 5725 66 
Q 5806 466 5856 953 
Q 6144 828 6338 772 
Q 6231 97 6125 -247 
Q 5944 -778 5506 -778 
Q 5050 -778 4663 -403 
Q 4409 -163 4209 194 
Q 3350 -363 2281 -772 
Q 2169 -597 1969 -347 
z
M 900 1541 
Q 1456 1622 2213 1753 
Q 2175 1522 2156 1272 
Q 1113 1109 325 978 
L 225 1447 
Q 659 1913 1178 2775 
Q 672 2747 225 2703 
L 106 3128 
Q 688 3922 1300 5353 
L 1775 5166 
Q 1131 3897 669 3166 
Q 1041 3178 1422 3194 
Q 1638 3578 1869 4028 
L 2331 3797 
Q 1569 2478 900 1541 
z
M 106 97 
Q 1206 334 2331 616 
Q 2313 366 2313 141 
Q 1269 -103 244 -378 
L 106 97 
z
M 4463 4972 
L 4731 5284 
Q 5175 5003 5681 4609 
L 5381 4247 
Q 4863 4691 4463 4972 
z
" transform="scale(0.015625)"/>
       </defs>
       <use xlink:href="#MicrosoftYaHei-5065"/>
       <use xlink:href="#MicrosoftYaHei-5eb7" transform="translate(100 0)"/>
       <use xlink:href="#MicrosoftYaHei-57fa" transform="translate(200 0)"/>
       <use xlink:href="#MicrosoftYaHei-7ebf" transform="translate(300 0)"/>
      </g>
     </g>
    </g>
   </g>
   <g id="line2d_17">
    <path d="M 248.807619 74.670545 
L 344.045714 74.670545 
" clip-path="url(#ped006ba6a1)" style="fill: none; stroke: #d2d2d7; stroke-width: 4; stroke-linecap: square"/>
   </g>
   <g id="line2d_18">
    <path d="M 248.807619 123.368727 
L 344.045714 123.368727 
" clip-path="url(#ped006ba6a1)" style="fill: none; stroke: #d2d2d7; stroke-width: 4; stroke-linecap: square"/>
   </g>
   <g id="line2d_19">
    <path d="M 248.807619 172.066909 
L 344.045714 172.066909 
" clip-path="url(#ped006ba6a1)" style="fill: none; stroke: #d2d2d7; stroke-width: 4; stroke-linecap: square"/>
   </g>
   <g id="line2d_20">
    <path d="M 248.807619 220.765091 
L 344.045714 220.765091 
" clip-path="url(#ped006ba6a1)" style="fill: none; stroke: #d2d2d7; stroke-width: 4; stroke-linecap: square"/>
   </g>
   <g id="line2d_21">
    <path d="M 248.807619 269.463273 
L 582.140952 269.463273 
" clip-path="url(#ped006ba6a1)" style="fill: none; stroke: #d2d2d7; stroke-width: 4; stroke-linecap: square"/>
   </g>
   <g id="line2d_22">
    <path d="M 248.807619 318.161455 
L 248.807619 318.161455 
" clip-path="url(#ped006ba6a1)" style="fill: none; stroke: #d2d2d7; stroke-width: 4; stroke-linecap: square"/>
   </g>
   <g id="patch_3">
    <path d="M 149.76 330.336 
L 629.76 330.336 
" style="fill: none; stroke: #d2d2d7; stroke-width: 0.8; stroke-linejoin: miter; stroke-linecap: square"/>
   </g>
   <g id="PathCollection_1">
    <defs>
     <path id="m97252a66d0" d="M 0 5.123475 
C 1.358762 5.123475 2.662055 4.583634 3.622844 3.622844 
C 4.583634 2.662055 5.123475 1.358762 5.123475 0 
C 5.123475 -1.358762 4.583634 -2.662055 3.622844 -3.622844 
C 2.662055 -4.583634 1.358762 -5.123475 0 -5.123475 
C -1.358762 -5.123475 -2.662055 -4.583634 -3.622844 -3.622844 
C -4.583634 -2.662055 -5.123475 -1.358762 -5.123475 0 
C -5.123475 1.358762 -4.583634 2.662055 -3.622844 3.622844 
C -2.662055 4.583634 -1.358762 5.123475 0 5.123475 
z
" style="stroke: #6e6e73; stroke-width: 2"/>
    </defs>
    <g clip-path="url(#ped006ba6a1)">
     <use xlink:href="#m97252a66d0" x="344.045714" y="74.670545" style="fill: #ffffff; stroke: #6e6e73; stroke-width: 2"/>
    </g>
   </g>
   <g id="PathCollection_2">
    <defs>
     <path id="m6c11b6ff59" d="M 0 5.123475 
C 1.358762 5.123475 2.662055 4.583634 3.622844 3.622844 
C 4.583634 2.662055 5.123475 1.358762 5.123475 0 
C 5.123475 -1.358762 4.583634 -2.662055 3.622844 -3.622844 
C 2.662055 -4.583634 1.358762 -5.123475 0 -5.123475 
C -1.358762 -5.123475 -2.662055 -4.583634 -3.622844 -3.622844 
C -4.583634 -2.662055 -5.123475 -1.358762 -5.123475 0 
C -5.123475 1.358762 -4.583634 2.662055 -3.622844 3.622844 
C -2.662055 4.583634 -1.358762 5.123475 0 5.123475 
z
" style="stroke: #0071e3"/>
    </defs>
    <g clip-path="url(#ped006ba6a1)">
     <use xlink:href="#m6c11b6ff59" x="248.807619" y="74.670545" style="fill: #0071e3; stroke: #0071e3"/>
    </g>
   </g>
   <g id="text_13">
    <!-- 3 -->
    <g style="fill: #6e6e73" transform="translate(353.045714 78.670545) scale(0.15 -0.15)">
     <defs>
      <path id="MicrosoftYaHei-33" d="M 447 809 
Q 944 425 1569 425 
Q 2069 425 2361 670 
Q 2653 916 2653 1328 
Q 2653 2247 1338 2247 
L 934 2247 
L 934 2753 
L 1319 2753 
Q 2484 2753 2484 3616 
Q 2484 4413 1594 4413 
Q 1084 4413 634 4069 
L 634 4647 
Q 1109 4922 1744 4922 
Q 2363 4922 2738 4598 
Q 3113 4275 3113 3759 
Q 3113 2809 2144 2538 
L 2144 2525 
Q 2669 2469 2973 2155 
Q 3278 1841 3278 1372 
Q 3278 719 2808 319 
Q 2338 -81 1556 -81 
Q 869 -81 447 175 
L 447 809 
z
" transform="scale(0.015625)"/>
     </defs>
     <use xlink:href="#MicrosoftYaHei-33"/>
    </g>
   </g>
   <g id="text_14">
    <!-- 1 -->
    <g style="fill: #0071e3" transform="translate(230.011525 78.670545) scale(0.15 -0.15)">
     <defs>
      <path id="MicrosoftYaHei-31" d="M 1781 0 
L 1781 4141 
Q 1638 3997 1295 3819 
Q 953 3641 663 3569 
L 663 4169 
Q 1047 4275 1484 4508 
Q 1922 4741 2156 4947 
L 2388 4947 
L 2388 0 
L 1781 0 
z
" transform="scale(0.015625)"/>
     </defs>
     <use xlink:href="#MicrosoftYaHei-31"/>
    </g>
   </g>
   <g id="PathCollection_3">
    <g clip-path="url(#ped006ba6a1)">
     <use xlink:href="#m97252a66d0" x="344.045714" y="123.368727" style="fill: #ffffff; stroke: #6e6e73; stroke-width: 2"/>
    </g>
   </g>
   <g id="PathCollection_4">
    <g clip-path="url(#ped006ba6a1)">
     <use xlink:href="#m6c11b6ff59" x="248.807619" y="123.368727" style="fill: #0071e3; stroke: #0071e3"/>
    </g>
   </g>
   <g id="text_15">
    <!-- 3 -->
    <g style="fill: #6e6e73" transform="translate(353.045714 127.368727) scale(0.15 -0.15)">
     <use xlink:href="#MicrosoftYaHei-33"/>
    </g>
   </g>
   <g id="text_16">
    <!-- 1 -->
    <g style="fill: #0071e3" transform="translate(230.011525 127.368727) scale(0.15 -0.15)">
     <use xlink:href="#MicrosoftYaHei-31"/>
    </g>
   </g>
   <g id="PathCollection_5">
    <g clip-path="url(#ped006ba6a1)">
     <use xlink:href="#m97252a66d0" x="344.045714" y="172.066909" style="fill: #ffffff; stroke: #6e6e73; stroke-width: 2"/>
    </g>
   </g>
   <g id="PathCollection_6">
    <g clip-path="url(#ped006ba6a1)">
     <use xlink:href="#m6c11b6ff59" x="248.807619" y="172.066909" style="fill: #0071e3; stroke: #0071e3"/>
    </g>
   </g>
   <g id="text_17">
    <!-- 3 -->
    <g style="fill: #6e6e73" transform="translate(353.045714 176.066909) scale(0.15 -0.15)">
     <use xlink:href="#MicrosoftYaHei-33"/>
    </g>
   </g>
   <g id="text_18">
    <!-- 1 -->
    <g style="fill: #0071e3" transform="translate(230.011525 176.066909) scale(0.15 -0.15)">
     <use xlink:href="#MicrosoftYaHei-31"/>
    </g>
   </g>
   <g id="PathCollection_7">
    <g clip-path="url(#ped006ba6a1)">
     <use xlink:href="#m97252a66d0" x="344.045714" y="220.765091" style="fill: #ffffff; stroke: #6e6e73; stroke-width: 2"/>
    </g>
   </g>
   <g id="PathCollection_8">
    <g clip-path="url(#ped006ba6a1)">
     <use xlink:href="#m6c11b6ff59" x="248.807619" y="220.765091" style="fill: #0071e3; stroke: #0071e3"/>
    </g>
   </g>
   <g id="text_19">
    <!-- 3 -->
    <g style="fill: #6e6e73" transform="translate(353.045714 224.765091) scale(0.15 -0.15)">
     <use xlink:href="#MicrosoftYaHei-33"/>
    </g>
   </g>
   <g id="text_20">
    <!-- 1 -->
    <g style="fill: #0071e3" transform="translate(230.011525 224.765091) scale(0.15 -0.15)">
     <use xlink:href="#MicrosoftYaHei-31"/>
    </g>
   </g>
   <g id="PathCollection_9">
    <g clip-path="url(#ped006ba6a1)">
     <use xlink:href="#m97252a66d0" x="582.140952" y="269.463273" style="fill: #ffffff; stroke: #6e6e73; stroke-width: 2"/>
    </g>
   </g>
   <g id="PathCollection_10">
    <g clip-path="url(#ped006ba6a1)">
     <use xlink:href="#m6c11b6ff59" x="248.807619" y="269.463273" style="fill: #0071e3; stroke: #0071e3"/>
    </g>
   </g>
   <g id="text_21">
    <!-- 8 -->
    <g style="fill: #6e6e73" transform="translate(591.140952 273.463273) scale(0.15 -0.15)">
     <use xlink:href="#MicrosoftYaHei-38"/>
    </g>
   </g>
   <g id="text_22">
    <!-- 1 -->
    <g style="fill: #0071e3" transform="translate(230.011525 273.463273) scale(0.15 -0.15)">
     <use xlink:href="#MicrosoftYaHei-31"/>
    </g>
   </g>
   <g id="PathCollection_11">
    <g clip-path="url(#ped006ba6a1)">
     <use xlink:href="#m97252a66d0" x="248.807619" y="318.161455" style="fill: #ffffff; stroke: #6e6e73; stroke-width: 2"/>
    </g>
   </g>
   <g id="PathCollection_12">
    <g clip-path="url(#ped006ba6a1)">
     <use xlink:href="#m6c11b6ff59" x="248.807619" y="318.161455" style="fill: #0071e3; stroke: #0071e3"/>
    </g>
   </g>
   <g id="text_23">
    <!-- 1 -->
    <g style="fill: #6e6e73" transform="translate(257.807619 322.161455) scale(0.15 -0.15)">
     <use xlink:href="#MicrosoftYaHei-31"/>
    </g>
   </g>
   <g id="text_24">
    <!-- 1 -->
    <g style="fill: #0071e3" transform="translate(230.011525 322.161455) scale(0.15 -0.15)">
     <use xlink:href="#MicrosoftYaHei-31"/>
    </g>
   </g>
   <g id="text_25">
    <!-- a  相同案例的单次配对观察 -->
    <g style="fill: #1d1d1f" transform="translate(149.76 42.496) scale(0.21 -0.21)">
     <defs>
      <path id="MicrosoftYaHei-Bold-61" d="M 544 3247 
Q 778 3378 1170 3459 
Q 1563 3541 1841 3541 
Q 3291 3541 3291 2088 
L 3291 0 
L 2331 0 
L 2331 503 
L 2319 503 
Q 1966 -84 1284 -84 
Q 794 -84 498 195 
Q 203 475 203 956 
Q 203 1950 1388 2113 
L 2338 2241 
Q 2338 2844 1709 2844 
Q 1091 2844 544 2469 
L 544 3247 
z
M 1684 1566 
Q 1138 1494 1138 1072 
Q 1138 878 1270 759 
Q 1403 641 1628 641 
Q 1938 641 2138 859 
Q 2338 1078 2338 1403 
L 2338 1650 
L 1684 1566 
z
" transform="scale(0.015625)"/>
      <path id="MicrosoftYaHei-Bold-20" transform="scale(0.015625)"/>
      <path id="MicrosoftYaHei-Bold-76f8" d="M 75 1559 
Q 663 2469 916 3297 
L 138 3297 
L 138 4116 
L 938 4116 
L 938 5272 
L 1763 5272 
L 1763 4116 
L 2456 4116 
L 2456 3297 
L 1763 3297 
L 1763 2741 
Q 2194 2503 2569 2266 
L 2200 1553 
Q 1988 1722 1763 1888 
L 1763 -834 
L 938 -834 
L 938 1641 
Q 672 1034 306 459 
Q 194 1047 75 1559 
z
M 2625 4966 
L 6050 4966 
L 6050 -859 
L 5188 -859 
L 5188 -547 
L 3488 -547 
L 3488 -859 
L 2625 -859 
L 2625 4966 
z
M 5188 4166 
L 3488 4166 
L 3488 3391 
L 5188 3391 
L 5188 4166 
z
M 3488 1828 
L 5188 1828 
L 5188 2603 
L 3488 2603 
L 3488 1828 
z
M 3488 253 
L 5188 253 
L 5188 1041 
L 3488 1041 
L 3488 253 
z
" transform="scale(0.015625)"/>
      <path id="MicrosoftYaHei-Bold-540c" d="M 381 5078 
L 6019 5078 
L 6019 291 
Q 6019 -253 5776 -523 
Q 5534 -794 5107 -801 
Q 4681 -809 4075 -809 
Q 3981 -309 3881 59 
Q 4272 19 4597 19 
Q 4847 19 4950 45 
Q 5053 72 5117 165 
Q 5181 259 5181 416 
L 5181 4297 
L 1219 4297 
L 1219 -797 
L 381 -797 
L 381 5078 
z
M 4875 3078 
L 1525 3078 
L 1525 3791 
L 4875 3791 
L 4875 3078 
z
M 1738 2591 
L 4638 2591 
L 4638 403 
L 2550 403 
L 2550 3 
L 1738 3 
L 1738 2591 
z
M 3825 1103 
L 3825 1891 
L 2550 1891 
L 2550 1103 
L 3825 1103 
z
" transform="scale(0.015625)"/>
      <path id="MicrosoftYaHei-Bold-6848" d="M 2544 5266 
L 3600 5353 
Q 3672 5156 3763 4872 
L 6081 4872 
L 6081 3866 
L 5244 3866 
L 5244 4228 
L 1169 4228 
L 1169 3866 
L 331 3866 
L 331 4872 
L 2709 4872 
Q 2622 5097 2544 5266 
z
M 6200 3166 
L 5138 3166 
Q 4844 2766 4475 2481 
L 5969 2166 
L 5556 1416 
Q 4588 1738 3584 2003 
Q 2622 1647 800 1428 
Q 650 1809 475 2147 
Q 1531 2200 2266 2325 
Q 1663 2463 1050 2578 
Q 1316 2866 1559 3166 
L 250 3166 
L 250 3753 
L 2009 3753 
Q 2172 3978 2325 4209 
L 3269 4041 
L 3034 3753 
L 6200 3753 
L 6200 3166 
z
M 2319 2909 
L 3497 2681 
Q 3891 2869 4153 3166 
L 2541 3166 
L 2319 2909 
z
M 2806 1728 
L 3631 1728 
L 3631 1266 
L 6175 1266 
L 6175 616 
L 4244 616 
Q 5041 178 6331 -47 
Q 6131 -453 5988 -809 
Q 4531 -444 3631 278 
L 3631 -859 
L 2806 -859 
L 2806 300 
Q 1919 -434 463 -809 
Q 300 -403 119 -72 
Q 1306 141 2153 616 
L 250 616 
L 250 1266 
L 2806 1266 
L 2806 1728 
z
" transform="scale(0.015625)"/>
      <path id="MicrosoftYaHei-Bold-4f8b" d="M 1025 5303 
L 1756 5159 
Q 1619 4544 1431 3950 
L 1431 -803 
L 700 -803 
L 700 2103 
Q 513 1713 300 1334 
Q 250 1722 100 2497 
Q 731 3853 1025 5303 
z
M 5275 5234 
L 6056 5234 
L 6056 184 
Q 6056 -244 5868 -472 
Q 5681 -700 5342 -731 
Q 5003 -763 4381 -747 
Q 4338 -391 4225 116 
Q 4706 84 4963 84 
Q 5275 84 5275 484 
L 5275 5234 
z
M 1788 5022 
L 3975 5022 
L 3975 4259 
L 2922 4259 
Q 2878 3944 2813 3647 
L 3938 3647 
Q 3938 428 2131 -822 
Q 1888 -534 1519 -197 
Q 2294 338 2703 1131 
Q 2425 1422 2106 1688 
Q 1991 1475 1856 1284 
Q 1700 1628 1463 2059 
Q 2006 3003 2156 4259 
L 1788 4259 
L 1788 5022 
z
M 3003 1909 
Q 3125 2366 3156 2891 
L 2622 2891 
Q 2534 2613 2428 2353 
Q 2722 2134 3003 1909 
z
M 4194 4766 
L 4894 4766 
L 4894 572 
L 4194 572 
L 4194 4766 
z
" transform="scale(0.015625)"/>
      <path id="MicrosoftYaHei-Bold-7684" d="M 1250 5303 
L 2181 5159 
L 1900 4309 
L 2963 4309 
L 2963 3091 
Q 3466 3934 3925 5316 
L 4788 5091 
Q 4650 4675 4494 4278 
L 6106 4278 
L 6034 681 
Q 6019 100 5937 -133 
Q 5856 -366 5684 -512 
Q 5513 -659 5205 -712 
Q 4897 -766 3863 -766 
Q 3769 -216 3625 178 
Q 4088 141 4609 141 
Q 4759 141 4868 175 
Q 4978 209 5048 279 
Q 5119 350 5144 437 
Q 5169 525 5184 1206 
L 5213 2484 
Q 5225 3081 5225 3453 
L 4138 3453 
Q 3931 3016 3700 2603 
Q 3403 2797 2963 2988 
L 2963 -734 
L 2094 -734 
L 2094 -284 
L 1206 -284 
L 1206 -772 
L 338 -772 
L 338 4309 
L 997 4309 
Q 1178 4922 1250 5303 
z
M 2094 3491 
L 1206 3491 
L 1206 2422 
L 2094 2422 
L 2094 3491 
z
M 1206 534 
L 2094 534 
L 2094 1603 
L 1206 1603 
L 1206 534 
z
M 3944 2703 
Q 4394 2166 4913 1397 
L 4125 872 
Q 3650 1653 3219 2203 
L 3944 2703 
z
" transform="scale(0.015625)"/>
      <path id="MicrosoftYaHei-Bold-5355" d="M 606 4403 
L 1750 4403 
Q 1534 4713 1306 5003 
L 2056 5341 
L 2706 4578 
L 2313 4403 
L 3569 4403 
Q 3944 4884 4244 5353 
L 5188 5016 
Q 4969 4781 4628 4403 
L 5806 4403 
L 5806 1297 
L 3644 1297 
L 3644 866 
L 6288 866 
L 6288 97 
L 3644 97 
L 3644 -834 
L 2769 -834 
L 2769 97 
L 113 97 
L 113 866 
L 2769 866 
L 2769 1297 
L 606 1297 
L 606 4403 
z
M 4981 3678 
L 3644 3678 
L 3644 3172 
L 4981 3172 
L 4981 3678 
z
M 1431 3172 
L 2769 3172 
L 2769 3678 
L 1431 3678 
L 1431 3172 
z
M 4981 2022 
L 4981 2528 
L 3644 2528 
L 3644 2022 
L 4981 2022 
z
M 1431 2022 
L 2769 2022 
L 2769 2528 
L 1431 2528 
L 1431 2022 
z
" transform="scale(0.015625)"/>
      <path id="MicrosoftYaHei-Bold-6b21" d="M 6163 4466 
L 6163 3741 
L 5663 2572 
L 4838 2734 
L 5288 3697 
L 3153 3697 
Q 2884 3081 2550 2528 
Q 2113 2778 1700 2966 
Q 2425 4059 2856 5353 
L 3706 5228 
Q 3594 4838 3459 4466 
L 6163 4466 
z
M 844 5109 
Q 1400 4422 1869 3766 
L 1081 3203 
Q 669 3922 138 4647 
L 844 5109 
z
M 3525 3328 
L 4350 3328 
Q 4334 2925 4278 2553 
Q 4934 606 6325 59 
Q 6050 -297 5800 -784 
Q 4588 -66 3978 1409 
Q 3422 -19 2031 -878 
Q 1725 -428 1400 -109 
Q 3469 916 3525 3328 
z
M 1150 2653 
Q 1588 2428 2006 2247 
Q 1500 1053 944 -391 
L 88 16 
Q 650 1209 1150 2653 
z
" transform="scale(0.015625)"/>
      <path id="MicrosoftYaHei-Bold-914d" d="M 163 5009 
L 3406 5009 
L 3406 4297 
L 2519 4297 
L 2519 3753 
L 3325 3753 
L 3325 -797 
L 2663 -797 
L 2663 -391 
L 994 -391 
L 994 -784 
L 331 -784 
L 331 3753 
L 1138 3753 
L 1138 4297 
L 163 4297 
L 163 5009 
z
M 1700 3753 
L 1981 3753 
L 1981 4297 
L 1700 4297 
L 1700 3753 
z
M 1350 1397 
Q 1166 1556 994 1694 
L 994 1266 
L 2663 1266 
L 2663 1634 
L 2531 1634 
Q 1981 1634 1981 2197 
L 1981 3097 
L 1697 3097 
Q 1672 1950 1350 1397 
z
M 2738 2159 
L 2781 2159 
L 2781 3097 
L 2519 3097 
L 2519 2397 
Q 2519 2159 2738 2159 
z
M 888 1941 
Q 1131 2303 1131 3097 
L 888 3097 
L 888 1941 
z
M 994 259 
L 2663 259 
L 2663 647 
L 994 647 
L 994 259 
z
M 5538 1334 
Q 5819 1209 6331 1047 
Q 6209 119 6125 -164 
Q 6041 -447 5842 -578 
Q 5644 -709 5325 -709 
L 4513 -709 
Q 3713 -709 3713 153 
L 3713 3003 
L 5188 3003 
L 5188 4184 
L 3619 4184 
L 3619 4984 
L 6000 4984 
L 6000 2203 
L 4519 2203 
L 4519 359 
Q 4519 78 4788 78 
L 5081 78 
Q 5316 78 5394 250 
Q 5472 422 5538 1334 
z
" transform="scale(0.015625)"/>
      <path id="MicrosoftYaHei-Bold-5bf9" d="M 3050 4234 
L 4850 4234 
L 4850 5309 
L 5744 5309 
L 5744 4234 
L 6319 4234 
L 6319 3409 
L 5744 3409 
L 5744 216 
Q 5744 -250 5539 -490 
Q 5334 -731 4987 -754 
Q 4641 -778 3656 -778 
Q 3594 -359 3450 147 
Q 3931 109 4409 109 
Q 4850 109 4850 516 
L 4850 3409 
L 3050 3409 
L 3050 4234 
z
M 863 3772 
L 1691 2509 
Q 1934 3206 2025 4016 
L 188 4016 
L 188 4834 
L 2900 4834 
L 2900 4028 
Q 2709 2722 2247 1669 
L 3169 278 
L 2394 -228 
L 1781 778 
Q 1269 -47 550 -684 
Q 369 -316 88 153 
Q 816 772 1278 1594 
L 181 3341 
L 863 3772 
z
M 3463 3047 
Q 4069 2278 4588 1528 
L 3844 1041 
Q 3375 1841 2813 2609 
L 3463 3047 
z
" transform="scale(0.015625)"/>
      <path id="MicrosoftYaHei-Bold-89c2" d="M 2588 1228 
L 2588 5078 
L 5956 5078 
L 5956 1266 
L 5119 1266 
L 5119 4266 
L 3425 4266 
L 3425 1228 
L 2588 1228 
z
M 794 3691 
L 1334 2725 
Q 1525 3344 1569 4009 
L 163 4009 
L 163 4797 
L 2388 4797 
Q 2331 3181 1819 1847 
L 2525 516 
L 1831 53 
Q 1631 484 1403 947 
Q 1019 238 481 -378 
Q 281 22 19 434 
Q 603 1091 969 1813 
Q 584 2563 138 3378 
L 794 3691 
z
M 5569 1003 
Q 5981 809 6356 672 
Q 6206 -394 5956 -558 
Q 5706 -722 5419 -722 
L 4956 -722 
Q 4188 -722 4188 34 
L 4188 675 
Q 3713 -269 2556 -878 
Q 2319 -534 1969 -122 
Q 3181 419 3537 1241 
Q 3894 2063 3856 3878 
L 4700 3878 
Q 4713 2550 4528 1672 
L 4956 1672 
L 4956 291 
Q 4956 9 5219 9 
Q 5391 9 5453 137 
Q 5516 266 5569 1003 
z
" transform="scale(0.015625)"/>
      <path id="MicrosoftYaHei-Bold-5bdf" d="M 3531 5347 
Q 3622 5100 3709 4828 
L 6138 4828 
L 6138 3791 
L 5338 3791 
L 5338 4191 
L 1094 4191 
L 1094 3741 
L 294 3741 
L 294 4828 
L 2741 4828 
Q 2672 5044 2594 5247 
L 3531 5347 
z
M 1825 628 
L 2213 41 
L 1900 -119 
Q 2359 -141 2581 -141 
Q 2869 -141 2869 128 
L 2869 641 
L 1263 641 
L 1263 1150 
Q 909 909 519 691 
Q 306 1028 81 1328 
Q 463 1500 800 1694 
Q 656 1863 500 2034 
L 1000 2397 
Q 1175 2222 1334 2047 
Q 1463 2138 1578 2234 
Q 1394 2441 1219 2622 
L 1719 2991 
Q 1878 2828 2034 2656 
Q 2228 2866 2394 3091 
L 1506 3091 
Q 1044 2619 506 2222 
Q 338 2447 50 2778 
Q 981 3359 1594 4153 
L 2219 3916 
Q 2122 3788 2022 3666 
L 3150 3666 
L 3150 3034 
Q 2884 2631 2550 2266 
L 4047 2266 
Q 3478 2938 3150 3784 
L 3763 4059 
Q 3838 3881 3922 3716 
L 5888 3716 
L 5888 3122 
Q 5553 2691 5141 2200 
Q 5666 1800 6325 1572 
Q 6050 1197 5863 841 
Q 5525 1016 5225 1219 
L 5225 641 
L 3700 641 
L 3700 -141 
Q 3700 -425 3576 -587 
Q 3453 -750 3234 -786 
Q 3016 -822 2025 -822 
Q 1953 -422 1869 -134 
Q 1169 -484 531 -747 
Q 369 -366 144 -66 
Q 994 203 1825 628 
z
M 4644 2656 
L 5075 3141 
L 4259 3141 
Q 4441 2881 4644 2656 
z
M 2206 1653 
L 2206 1913 
Q 1856 1578 1444 1278 
L 5138 1278 
Q 4675 1600 4300 1988 
L 4300 1653 
L 2206 1653 
z
M 4475 559 
Q 5425 241 6244 -66 
L 5875 -722 
Q 5081 -391 4125 -28 
L 4475 559 
z
" transform="scale(0.015625)"/>
     </defs>
     <use xlink:href="#MicrosoftYaHei-Bold-61"/>
     <use xlink:href="#MicrosoftYaHei-Bold-20" transform="translate(57.763672 0)"/>
     <use xlink:href="#MicrosoftYaHei-Bold-20" transform="translate(87.548828 0)"/>
     <use xlink:href="#MicrosoftYaHei-Bold-76f8" transform="translate(117.333984 0)"/>
     <use xlink:href="#MicrosoftYaHei-Bold-540c" transform="translate(217.333984 0)"/>
     <use xlink:href="#MicrosoftYaHei-Bold-6848" transform="translate(317.333984 0)"/>
     <use xlink:href="#MicrosoftYaHei-Bold-4f8b" transform="translate(417.333984 0)"/>
     <use xlink:href="#MicrosoftYaHei-Bold-7684" transform="translate(517.333984 0)"/>
     <use xlink:href="#MicrosoftYaHei-Bold-5355" transform="translate(617.333984 0)"/>
     <use xlink:href="#MicrosoftYaHei-Bold-6b21" transform="translate(717.333984 0)"/>
     <use xlink:href="#MicrosoftYaHei-Bold-914d" transform="translate(817.333984 0)"/>
     <use xlink:href="#MicrosoftYaHei-Bold-5bf9" transform="translate(917.333984 0)"/>
     <use xlink:href="#MicrosoftYaHei-Bold-89c2" transform="translate(1017.333984 0)"/>
     <use xlink:href="#MicrosoftYaHei-Bold-5bdf" transform="translate(1117.333984 0)"/>
    </g>
   </g>
   <g id="legend_1">
    <g id="PathCollection_13">
     <g>
      <use xlink:href="#m97252a66d0" x="337.26" y="408.270394" style="fill: #ffffff; stroke: #6e6e73; stroke-width: 2"/>
     </g>
    </g>
    <g id="text_26">
     <!-- 模型按需检索 -->
     <g style="fill: #1d1d1f" transform="translate(364.26 412.207894) scale(0.15 -0.15)">
      <defs>
       <path id="MicrosoftYaHei-6309" d="M 1763 -366 
Q 3172 -25 3822 450 
Q 3184 791 2444 1147 
Q 2713 1622 2959 2153 
L 2194 2153 
L 2194 2603 
L 3159 2603 
Q 3384 3119 3588 3684 
L 4113 3503 
Q 3919 3069 3700 2603 
L 6263 2603 
L 6263 2153 
L 5444 2153 
Q 5219 1191 4650 547 
Q 5494 100 6238 -353 
L 5938 -828 
Q 5253 -338 4288 197 
Q 3566 -394 2013 -834 
Q 1938 -609 1763 -366 
z
M 88 1966 
Q 503 2094 938 2244 
L 938 3641 
L 175 3641 
L 175 4091 
L 938 4091 
L 938 5253 
L 1413 5253 
L 1413 4091 
L 2100 4091 
L 2100 3641 
L 1413 3641 
L 1413 2413 
Q 1691 2513 1975 2622 
Q 1988 2359 2025 2122 
Q 1722 2016 1413 1900 
L 1413 -78 
Q 1413 -753 763 -759 
Q 569 -766 206 -753 
Q 181 -497 131 -234 
Q 431 -272 681 -272 
Q 938 -272 938 28 
L 938 1722 
Q 550 1575 150 1416 
L 88 1966 
z
M 2300 4384 
L 4056 4384 
Q 3884 4734 3663 5122 
L 4113 5347 
Q 4419 4847 4550 4572 
L 4178 4384 
L 6119 4384 
L 6119 3322 
L 5619 3322 
L 5619 3934 
L 2800 3934 
L 2800 3322 
L 2300 3322 
L 2300 4384 
z
M 3088 1328 
Q 3656 1056 4188 784 
Q 4750 1384 4934 2153 
L 3488 2153 
Q 3297 1753 3088 1328 
z
" transform="scale(0.015625)"/>
       <path id="MicrosoftYaHei-9700" d="M 1188 -822 
L 713 -822 
L 713 1228 
L 2750 1228 
L 2853 1716 
L 125 1716 
L 125 2103 
L 6275 2103 
L 6275 1716 
L 3338 1716 
L 3213 1228 
L 5719 1228 
L 5719 -172 
Q 5719 -791 5100 -791 
Q 4800 -791 4444 -778 
Q 4425 -572 4356 -297 
Q 4725 -334 4963 -334 
Q 5244 -334 5244 -84 
L 5244 841 
L 4169 841 
L 4169 -647 
L 3725 -647 
L 3725 841 
L 2688 841 
L 2688 -647 
L 2244 -647 
L 2244 841 
L 1188 841 
L 1188 -822 
z
M 338 4266 
L 2975 4266 
L 2975 4628 
L 650 4628 
L 650 5016 
L 5700 5016 
L 5700 4628 
L 3419 4628 
L 3419 4266 
L 6063 4266 
L 6063 3103 
L 5581 3103 
L 5581 3878 
L 3419 3878 
L 3419 2391 
L 2975 2391 
L 2975 3878 
L 819 3878 
L 819 3103 
L 338 3103 
L 338 4266 
z
M 3750 2816 
L 5219 2816 
L 5219 2478 
L 3750 2478 
L 3750 2816 
z
M 1175 3516 
L 2644 3516 
L 2644 3178 
L 1175 3178 
L 1175 3516 
z
M 1175 2816 
L 2644 2816 
L 2644 2478 
L 1175 2478 
L 1175 2816 
z
M 3750 3516 
L 5219 3516 
L 5219 3178 
L 3750 3178 
L 3750 3516 
z
" transform="scale(0.015625)"/>
       <path id="MicrosoftYaHei-68c0" d="M 81 1378 
Q 675 2328 988 3597 
L 144 3597 
L 144 4009 
L 1044 4009 
L 1044 5266 
L 1481 5266 
L 1481 4009 
L 2319 4009 
L 2319 3597 
L 1481 3597 
L 1481 2672 
L 1756 2872 
Q 2094 2459 2350 2097 
L 2006 1828 
Q 1788 2197 1481 2597 
L 1481 -841 
L 1044 -841 
L 1044 2647 
Q 725 1534 281 828 
Q 206 1103 81 1378 
z
M 2163 -122 
L 4544 -122 
Q 4881 791 5244 2203 
L 5750 2059 
Q 5331 741 5013 -122 
L 6188 -122 
L 6188 -566 
L 2163 -566 
L 2163 -122 
z
M 4538 5216 
L 4456 5091 
Q 5119 3891 6344 3166 
Q 6175 2978 6000 2741 
Q 4781 3603 4181 4672 
Q 3438 3466 2475 2666 
Q 2325 2866 2119 3059 
Q 3281 3941 3944 5216 
L 4538 5216 
z
M 2900 2972 
L 5463 2972 
L 5463 2534 
L 2900 2534 
L 2900 2972 
z
M 3656 2197 
L 4094 2303 
Q 4338 1441 4500 578 
L 4031 459 
Q 3875 1441 3656 2197 
z
M 2469 1947 
L 2900 2072 
Q 3138 1378 3388 378 
L 2925 241 
Q 2719 1172 2469 1947 
z
" transform="scale(0.015625)"/>
       <path id="MicrosoftYaHei-7d22" d="M 4431 2197 
Q 5281 1559 5956 966 
L 5588 622 
Q 5391 816 5178 1009 
Q 4331 978 3531 941 
L 3531 3 
Q 3531 -766 2713 -766 
Q 2344 -766 1925 -753 
Q 1894 -528 1838 -253 
Q 2288 -303 2619 -303 
Q 3044 -303 3044 109 
L 3044 913 
Q 2413 881 1813 841 
Q 1450 816 1088 759 
L 900 1253 
Q 1325 1341 1750 1541 
Q 2350 1831 2884 2131 
Q 2381 2097 1919 2059 
Q 1625 2028 1400 1984 
L 1244 2409 
Q 1513 2509 1769 2672 
Q 2175 2934 2619 3297 
L 806 3297 
L 806 2578 
L 319 2578 
L 319 3722 
L 2944 3722 
L 2944 4303 
L 500 4303 
L 500 4728 
L 2944 4728 
L 2944 5341 
L 3456 5341 
L 3456 4728 
L 5925 4728 
L 5925 4303 
L 3456 4303 
L 3456 3722 
L 6081 3722 
L 6081 2578 
L 5594 2578 
L 5594 3297 
L 3231 3297 
Q 2584 2791 2000 2416 
Q 2731 2447 3459 2472 
Q 3891 2738 4269 3009 
L 4650 2716 
Q 3244 1866 1988 1253 
Q 3313 1309 4747 1388 
Q 4441 1650 4106 1916 
L 4431 2197 
z
M 4356 678 
Q 5425 203 6294 -266 
Q 6113 -503 6000 -697 
Q 5181 -191 4094 322 
L 4356 678 
z
M 1838 728 
L 2131 372 
Q 1294 -228 394 -684 
Q 275 -491 88 -278 
Q 1031 141 1838 728 
z
" transform="scale(0.015625)"/>
      </defs>
      <use xlink:href="#MicrosoftYaHei-6a21"/>
      <use xlink:href="#MicrosoftYaHei-578b" transform="translate(100 0)"/>
      <use xlink:href="#MicrosoftYaHei-6309" transform="translate(200 0)"/>
      <use xlink:href="#MicrosoftYaHei-9700" transform="translate(300 0)"/>
      <use xlink:href="#MicrosoftYaHei-68c0" transform="translate(400 0)"/>
      <use xlink:href="#MicrosoftYaHei-7d22" transform="translate(500 0)"/>
     </g>
    </g>
    <g id="PathCollection_14">
     <g>
      <use xlink:href="#m6c11b6ff59" x="499.26" y="408.270394" style="fill: #0071e3; stroke: #0071e3"/>
     </g>
    </g>
    <g id="text_27">
     <!-- 自动预检增强 -->
     <g style="fill: #1d1d1f" transform="translate(526.26 412.207894) scale(0.15 -0.15)">
      <defs>
       <path id="MicrosoftYaHei-81ea" d="M 775 4466 
L 2391 4466 
Q 2525 4828 2688 5328 
L 3219 5166 
Q 3059 4778 2909 4466 
L 5625 4466 
L 5625 -822 
L 5125 -822 
L 5125 -447 
L 1275 -447 
L 1275 -822 
L 775 -822 
L 775 4466 
z
M 1275 3 
L 5125 3 
L 5125 1053 
L 1275 1053 
L 1275 3 
z
M 1275 1497 
L 5125 1497 
L 5125 2534 
L 1275 2534 
L 1275 1497 
z
M 5125 4016 
L 1275 4016 
L 1275 2978 
L 5125 2978 
L 5125 4016 
z
" transform="scale(0.015625)"/>
       <path id="MicrosoftYaHei-52a8" d="M 2975 4022 
L 3906 4022 
Q 3916 4650 3913 5309 
L 4425 5309 
Q 4422 4656 4409 4022 
L 6094 4022 
Q 6050 1659 5969 216 
Q 5900 -666 5150 -678 
Q 4763 -678 4306 -659 
Q 4263 -397 4206 -109 
Q 4638 -166 4994 -172 
Q 5456 -172 5475 347 
Q 5569 1897 5588 3547 
L 4400 3547 
Q 4394 3278 4388 3016 
Q 4356 553 2900 -872 
Q 2725 -659 2525 -447 
Q 3831 716 3888 3028 
Q 3894 3284 3900 3547 
L 2975 3547 
L 2975 4022 
z
M 2338 1866 
Q 2731 1016 3063 178 
Q 2788 59 2594 -28 
Q 2550 91 2506 209 
Q 1316 97 338 -16 
L 119 491 
Q 394 647 563 997 
Q 869 1613 1200 2559 
L 144 2559 
L 144 3022 
L 3163 3022 
L 3163 2559 
L 1725 2559 
Q 1191 1228 800 491 
Q 1519 544 2347 631 
Q 2138 1163 1906 1672 
L 2338 1866 
z
M 406 4778 
L 2913 4778 
L 2913 4316 
L 406 4316 
L 406 4778 
z
" transform="scale(0.015625)"/>
       <path id="MicrosoftYaHei-9884" d="M 531 3872 
L 844 4147 
Q 1069 3947 1275 3747 
L 1938 4553 
L 175 4553 
L 175 4991 
L 2513 4991 
L 2513 4553 
L 1588 3434 
Q 1694 3322 1794 3216 
L 1544 2997 
L 2681 2997 
L 2681 2578 
Q 2581 2097 2369 1466 
Q 2175 1534 1938 1609 
Q 2094 2003 2213 2559 
L 1588 2559 
L 1588 -72 
Q 1588 -784 888 -784 
L 225 -784 
Q 194 -559 138 -278 
Q 450 -316 769 -316 
Q 1119 -316 1119 84 
L 1119 2559 
L 113 2559 
L 113 2997 
L 1344 2997 
Q 938 3484 531 3872 
z
M 2969 3716 
L 4025 3716 
L 4181 4572 
L 2744 4572 
L 2744 5009 
L 6294 5009 
L 6294 4572 
L 4688 4572 
L 4506 3716 
L 6006 3716 
L 6006 641 
L 5550 641 
L 5550 3284 
L 3425 3284 
L 3425 641 
L 2969 641 
L 2969 3716 
z
M 4244 3028 
L 4706 3028 
L 4706 2097 
Q 4706 1366 4519 841 
Q 5500 184 6306 -441 
L 5963 -847 
Q 5200 -197 4325 428 
Q 4263 334 4200 247 
Q 3694 -397 2613 -897 
Q 2413 -641 2263 -484 
Q 3381 -22 3831 572 
Q 4244 1109 4244 2128 
L 4244 3028 
z
" transform="scale(0.015625)"/>
       <path id="MicrosoftYaHei-589e" d="M 2188 4459 
L 3259 4459 
Q 3041 4781 2775 5116 
L 3131 5366 
Q 3456 4991 3694 4666 
L 3403 4459 
L 4453 4459 
Q 4759 4888 5050 5372 
L 5500 5116 
Q 5234 4772 4978 4459 
L 6038 4459 
L 6038 2122 
L 5600 2122 
L 5600 2309 
L 2625 2309 
L 2625 2122 
L 2188 2122 
L 2188 4459 
z
M 2438 1797 
L 5788 1797 
L 5788 -847 
L 5338 -847 
L 5338 -547 
L 2888 -547 
L 2888 -847 
L 2438 -847 
L 2438 1797 
z
M 81 428 
Q 466 538 894 672 
L 894 3253 
L 144 3253 
L 144 3697 
L 894 3697 
L 894 5259 
L 1356 5259 
L 1356 3697 
L 2000 3697 
L 2000 3253 
L 1356 3253 
L 1356 819 
Q 1709 931 2094 1059 
Q 2106 759 2125 553 
Q 1306 316 250 -53 
L 81 428 
z
M 5600 4084 
L 4325 4084 
L 4325 2684 
L 5600 2684 
L 5600 4084 
z
M 2625 2684 
L 3894 2684 
L 3894 4084 
L 2625 4084 
L 2625 2684 
z
M 5338 1409 
L 2888 1409 
L 2888 809 
L 5338 809 
L 5338 1409 
z
M 2888 -159 
L 5338 -159 
L 5338 434 
L 2888 434 
L 2888 -159 
z
M 5350 3609 
Q 5006 3066 4856 2884 
L 4519 3084 
Q 4744 3391 4981 3828 
L 5350 3609 
z
M 2863 3597 
L 3181 3803 
Q 3463 3441 3669 3122 
L 3319 2897 
Q 3119 3228 2863 3597 
z
" transform="scale(0.015625)"/>
       <path id="MicrosoftYaHei-5f3a" d="M 5250 466 
L 5669 666 
Q 6031 28 6363 -641 
L 5894 -878 
Q 5794 -641 5688 -416 
Q 3750 -547 2219 -653 
L 2150 -134 
Q 3088 -97 3969 -59 
L 3969 866 
L 2894 866 
L 2894 622 
L 2431 622 
L 2431 2616 
L 3969 2616 
L 3969 3297 
L 3144 3297 
L 3144 3047 
L 2681 3047 
L 2681 4972 
L 5731 4972 
L 5731 3047 
L 5269 3047 
L 5269 3297 
L 4444 3297 
L 4444 2616 
L 5988 2616 
L 5988 866 
L 4444 866 
L 4444 -41 
Q 4975 -22 5488 3 
Q 5369 241 5250 466 
z
M 425 3466 
L 1650 3466 
L 1650 4516 
L 238 4516 
L 238 4941 
L 2113 4941 
L 2113 2772 
L 1650 2772 
L 1650 3041 
L 831 3041 
L 719 2072 
L 2056 2072 
Q 1994 741 1944 128 
Q 1888 -722 1100 -722 
Q 819 -722 425 -716 
Q 388 -484 325 -216 
Q 731 -247 1019 -247 
Q 1444 -247 1475 191 
Q 1525 828 1563 1647 
L 225 1647 
L 425 3466 
z
M 5269 4547 
L 3144 4547 
L 3144 3722 
L 5269 3722 
L 5269 4547 
z
M 5525 1291 
L 5525 2191 
L 4444 2191 
L 4444 1291 
L 5525 1291 
z
M 2894 1291 
L 3969 1291 
L 3969 2191 
L 2894 2191 
L 2894 1291 
z
" transform="scale(0.015625)"/>
      </defs>
      <use xlink:href="#MicrosoftYaHei-81ea"/>
      <use xlink:href="#MicrosoftYaHei-52a8" transform="translate(100 0)"/>
      <use xlink:href="#MicrosoftYaHei-9884" transform="translate(200 0)"/>
      <use xlink:href="#MicrosoftYaHei-68c0" transform="translate(300 0)"/>
      <use xlink:href="#MicrosoftYaHei-589e" transform="translate(400 0)"/>
      <use xlink:href="#MicrosoftYaHei-5f3a" transform="translate(500 0)"/>
     </g>
    </g>
   </g>
  </g>
  <g id="axes_2">
   <g id="patch_4">
    <path d="M 819.282581 330.336 
L 1128.96 330.336 
L 1128.96 62.496 
L 819.282581 62.496 
z
" style="fill: #ffffff"/>
   </g>
   <g id="matplotlib.axis_3">
    <g id="xtick_6">
     <g id="line2d_23">
      <path d="M 819.282581 330.336 
L 819.282581 62.496 
" clip-path="url(#paa09cb7bba)" style="fill: none; stroke: #ececf0; stroke-linecap: square"/>
     </g>
     <g id="line2d_24"/>
     <g id="text_28">
      <!-- 0 -->
      <g style="fill: #6e6e73" transform="translate(813.711721 354.524125) scale(0.19 -0.19)">
       <use xlink:href="#MicrosoftYaHei-30"/>
      </g>
     </g>
    </g>
    <g id="xtick_7">
     <g id="line2d_25">
      <path d="M 884.822775 330.336 
L 884.822775 62.496 
" clip-path="url(#paa09cb7bba)" style="fill: none; stroke: #ececf0; stroke-linecap: square"/>
     </g>
     <g id="line2d_26"/>
     <g id="text_29">
      <!-- 2 -->
      <g style="fill: #6e6e73" transform="translate(879.251916 354.524125) scale(0.19 -0.19)">
       <use xlink:href="#MicrosoftYaHei-32"/>
      </g>
     </g>
    </g>
    <g id="xtick_8">
     <g id="line2d_27">
      <path d="M 950.36297 330.336 
L 950.36297 62.496 
" clip-path="url(#paa09cb7bba)" style="fill: none; stroke: #ececf0; stroke-linecap: square"/>
     </g>
     <g id="line2d_28"/>
     <g id="text_30">
      <!-- 4 -->
      <g style="fill: #6e6e73" transform="translate(944.79211 354.524125) scale(0.19 -0.19)">
       <use xlink:href="#MicrosoftYaHei-34"/>
      </g>
     </g>
    </g>
    <g id="xtick_9">
     <g id="line2d_29">
      <path d="M 1015.903164 330.336 
L 1015.903164 62.496 
" clip-path="url(#paa09cb7bba)" style="fill: none; stroke: #ececf0; stroke-linecap: square"/>
     </g>
     <g id="line2d_30"/>
     <g id="text_31">
      <!-- 6 -->
      <g style="fill: #6e6e73" transform="translate(1010.332305 354.524125) scale(0.19 -0.19)">
       <use xlink:href="#MicrosoftYaHei-36"/>
      </g>
     </g>
    </g>
    <g id="xtick_10">
     <g id="line2d_31">
      <path d="M 1081.443359 330.336 
L 1081.443359 62.496 
" clip-path="url(#paa09cb7bba)" style="fill: none; stroke: #ececf0; stroke-linecap: square"/>
     </g>
     <g id="line2d_32"/>
     <g id="text_32">
      <!-- 8 -->
      <g style="fill: #6e6e73" transform="translate(1075.8725 354.524125) scale(0.19 -0.19)">
       <use xlink:href="#MicrosoftYaHei-38"/>
      </g>
     </g>
    </g>
    <g id="text_33">
     <!-- 减少量 / 次（按需检索 − 预检增强） -->
     <g style="fill: #6e6e73" transform="translate(843.30004 376.037406) scale(0.16 -0.16)">
      <defs>
       <path id="MicrosoftYaHei-51cf" d="M 3406 -484 
Q 4103 84 4628 878 
Q 4381 1866 4347 3872 
L 2269 3872 
L 2269 2278 
Q 2269 366 1381 -809 
Q 1150 -566 1000 -466 
Q 1831 584 1831 2303 
L 1831 4297 
L 4338 4297 
Q 4331 4800 4331 5278 
L 4788 5278 
Q 4788 4803 4791 4297 
L 6300 4297 
L 6300 3872 
L 4794 3872 
Q 4806 2363 4972 1453 
Q 5403 2256 5688 3253 
L 6138 3097 
Q 5716 1794 5122 813 
Q 5281 250 5488 -47 
Q 5688 -291 5763 53 
Q 5831 422 5881 953 
Q 6175 847 6344 797 
Q 6256 134 6150 -297 
Q 6013 -791 5700 -784 
Q 5431 -791 5194 -478 
Q 4959 -128 4797 316 
Q 4347 -313 3813 -784 
Q 3619 -616 3406 -484 
z
M 2656 2347 
L 4069 2347 
L 4069 509 
L 3069 509 
L 3069 122 
L 2656 122 
L 2656 2347 
z
M 131 16 
Q 519 1059 925 2609 
Q 1163 2497 1388 2409 
Q 1106 1403 638 -153 
L 131 16 
z
M 244 4541 
L 631 4809 
Q 1069 4303 1506 3728 
L 1075 3416 
Q 563 4153 244 4541 
z
M 3656 897 
L 3656 1959 
L 3069 1959 
L 3069 897 
L 3656 897 
z
M 2544 3316 
L 4088 3316 
L 4088 2916 
L 2544 2916 
L 2544 3316 
z
M 5050 5041 
L 5369 5291 
Q 5681 4978 5963 4666 
L 5606 4384 
Q 5350 4709 5050 5041 
z
" transform="scale(0.015625)"/>
       <path id="MicrosoftYaHei-5c11" d="M 1631 4428 
L 2144 4228 
Q 1463 2722 669 1484 
Q 475 1609 200 1766 
Q 994 2916 1631 4428 
z
M 4138 4266 
L 4531 4566 
Q 5531 3491 6331 2528 
L 5881 2166 
Q 5006 3278 4138 4266 
z
M 2925 5284 
L 3463 5284 
L 3463 1359 
L 2925 1359 
L 2925 5284 
z
M 4988 2416 
L 5444 2116 
Q 3631 -216 413 -859 
Q 275 -609 100 -359 
Q 3350 272 4988 2416 
z
" transform="scale(0.015625)"/>
       <path id="MicrosoftYaHei-91cf" d="M 113 -278 
L 2981 -278 
L 2981 78 
L 475 78 
L 475 403 
L 2981 403 
L 2981 759 
L 1494 759 
L 1494 597 
L 1069 597 
L 1069 2516 
L 5350 2516 
L 5350 597 
L 4925 597 
L 4925 759 
L 3419 759 
L 3419 403 
L 5931 403 
L 5931 78 
L 3419 78 
L 3419 -278 
L 6288 -278 
L 6288 -616 
L 113 -616 
L 113 -278 
z
M 1119 5072 
L 5306 5072 
L 5306 3284 
L 4881 3284 
L 4881 3453 
L 1544 3453 
L 1544 3284 
L 1119 3284 
L 1119 5072 
z
M 163 3153 
L 6263 3153 
L 6263 2816 
L 163 2816 
L 163 3153 
z
M 1544 3778 
L 4881 3778 
L 4881 4116 
L 1544 4116 
L 1544 3778 
z
M 4881 4747 
L 1544 4747 
L 1544 4416 
L 4881 4416 
L 4881 4747 
z
M 3419 1084 
L 4925 1084 
L 4925 1491 
L 3419 1491 
L 3419 1084 
z
M 1494 1084 
L 2981 1084 
L 2981 1491 
L 1494 1491 
L 1494 1084 
z
M 4925 2191 
L 3419 2191 
L 3419 1791 
L 4925 1791 
L 4925 2191 
z
M 1494 1791 
L 2981 1791 
L 2981 2191 
L 1494 2191 
L 1494 1791 
z
" transform="scale(0.015625)"/>
       <path id="MicrosoftYaHei-ff08" d="M 5288 -1100 
Q 4172 119 4172 1850 
Q 4172 3603 5288 4838 
L 5825 4838 
Q 4716 3572 4716 1856 
Q 4716 166 5819 -1100 
L 5288 -1100 
z
" transform="scale(0.015625)"/>
       <path id="MicrosoftYaHei-2212" d="M 3972 1772 
L 788 1772 
L 788 2250 
L 3972 2250 
L 3972 1772 
z
" transform="scale(0.015625)"/>
       <path id="MicrosoftYaHei-ff09" d="M 1113 -1100 
L 575 -1100 
Q 1684 163 1684 1888 
Q 1684 3581 581 4838 
L 1113 4838 
Q 2222 3628 2222 1888 
Q 2222 128 1113 -1100 
z
" transform="scale(0.015625)"/>
      </defs>
      <use xlink:href="#MicrosoftYaHei-51cf"/>
      <use xlink:href="#MicrosoftYaHei-5c11" transform="translate(100 0)"/>
      <use xlink:href="#MicrosoftYaHei-91cf" transform="translate(200 0)"/>
      <use xlink:href="#MicrosoftYaHei-20" transform="translate(300 0)"/>
      <use xlink:href="#MicrosoftYaHei-2f" transform="translate(329.589844 0)"/>
      <use xlink:href="#MicrosoftYaHei-20" transform="translate(372.314453 0)"/>
      <use xlink:href="#MicrosoftYaHei-6b21" transform="translate(401.904297 0)"/>
      <use xlink:href="#MicrosoftYaHei-ff08" transform="translate(501.904297 0)"/>
      <use xlink:href="#MicrosoftYaHei-6309" transform="translate(601.904297 0)"/>
      <use xlink:href="#MicrosoftYaHei-9700" transform="translate(701.904297 0)"/>
      <use xlink:href="#MicrosoftYaHei-68c0" transform="translate(801.904297 0)"/>
      <use xlink:href="#MicrosoftYaHei-7d22" transform="translate(901.904297 0)"/>
      <use xlink:href="#MicrosoftYaHei-20" transform="translate(1001.904297 0)"/>
      <use xlink:href="#MicrosoftYaHei-2212" transform="translate(1031.494141 0)"/>
      <use xlink:href="#MicrosoftYaHei-20" transform="translate(1105.664062 0)"/>
      <use xlink:href="#MicrosoftYaHei-9884" transform="translate(1135.253906 0)"/>
      <use xlink:href="#MicrosoftYaHei-68c0" transform="translate(1235.253906 0)"/>
      <use xlink:href="#MicrosoftYaHei-589e" transform="translate(1335.253906 0)"/>
      <use xlink:href="#MicrosoftYaHei-5f3a" transform="translate(1435.253906 0)"/>
      <use xlink:href="#MicrosoftYaHei-ff09" transform="translate(1535.253906 0)"/>
     </g>
    </g>
   </g>
   <g id="matplotlib.axis_4">
    <g id="ytick_7">
     <g id="line2d_33"/>
     <g id="text_34">
      <!-- UAF -->
      <g style="fill: #1d1d1f" transform="translate(778.920081 92.133314) scale(0.16 -0.16)">
       <use xlink:href="#MicrosoftYaHei-55"/>
       <use xlink:href="#MicrosoftYaHei-41" transform="translate(72.533203 0)"/>
       <use xlink:href="#MicrosoftYaHei-46" transform="translate(142.894531 0)"/>
      </g>
     </g>
    </g>
    <g id="ytick_8">
     <g id="line2d_34"/>
     <g id="text_35">
      <!-- 内存泄漏 -->
      <g style="fill: #1d1d1f" transform="translate(746.282581 136.404388) scale(0.16 -0.16)">
       <use xlink:href="#MicrosoftYaHei-5185"/>
       <use xlink:href="#MicrosoftYaHei-5b58" transform="translate(100 0)"/>
       <use xlink:href="#MicrosoftYaHei-6cc4" transform="translate(200 0)"/>
       <use xlink:href="#MicrosoftYaHei-6f0f" transform="translate(300 0)"/>
      </g>
     </g>
    </g>
    <g id="ytick_9">
     <g id="line2d_35"/>
     <g id="text_36">
      <!-- 锁顺序 -->
      <g style="fill: #1d1d1f" transform="translate(762.282581 180.675463) scale(0.16 -0.16)">
       <use xlink:href="#MicrosoftYaHei-9501"/>
       <use xlink:href="#MicrosoftYaHei-987a" transform="translate(100 0)"/>
       <use xlink:href="#MicrosoftYaHei-5e8f" transform="translate(200 0)"/>
      </g>
     </g>
    </g>
    <g id="ytick_10">
     <g id="line2d_36"/>
     <g id="text_37">
      <!-- 原子态睡眠 -->
      <g style="fill: #1d1d1f" transform="translate(730.282581 224.946537) scale(0.16 -0.16)">
       <use xlink:href="#MicrosoftYaHei-539f"/>
       <use xlink:href="#MicrosoftYaHei-5b50" transform="translate(100 0)"/>
       <use xlink:href="#MicrosoftYaHei-6001" transform="translate(200 0)"/>
       <use xlink:href="#MicrosoftYaHei-7761" transform="translate(300 0)"/>
       <use xlink:href="#MicrosoftYaHei-7720" transform="translate(400 0)"/>
      </g>
     </g>
    </g>
    <g id="ytick_11">
     <g id="line2d_37"/>
     <g id="text_38">
      <!-- OOM -->
      <g style="fill: #1d1d1f" transform="translate(768.570081 269.217612) scale(0.16 -0.16)">
       <use xlink:href="#MicrosoftYaHei-4f"/>
       <use xlink:href="#MicrosoftYaHei-4f" transform="translate(81.494141 0)"/>
       <use xlink:href="#MicrosoftYaHei-4d" transform="translate(162.988281 0)"/>
      </g>
     </g>
    </g>
    <g id="ytick_12">
     <g id="line2d_38"/>
     <g id="text_39">
      <!-- 健康基线 -->
      <g style="fill: #1d1d1f" transform="translate(746.282581 313.488686) scale(0.16 -0.16)">
       <use xlink:href="#MicrosoftYaHei-5065"/>
       <use xlink:href="#MicrosoftYaHei-5eb7" transform="translate(100 0)"/>
       <use xlink:href="#MicrosoftYaHei-57fa" transform="translate(200 0)"/>
       <use xlink:href="#MicrosoftYaHei-7ebf" transform="translate(300 0)"/>
      </g>
     </g>
    </g>
   </g>
   <g id="patch_5">
    <path d="M 819.282581 74.670545 
L 884.822775 74.670545 
L 884.822775 96.806083 
L 819.282581 96.806083 
z
" clip-path="url(#paa09cb7bba)" style="fill: #0071e3"/>
   </g>
   <g id="patch_6">
    <path d="M 819.282581 118.94162 
L 884.822775 118.94162 
L 884.822775 141.077157 
L 819.282581 141.077157 
z
" clip-path="url(#paa09cb7bba)" style="fill: #0071e3"/>
   </g>
   <g id="patch_7">
    <path d="M 819.282581 163.212694 
L 884.822775 163.212694 
L 884.822775 185.348231 
L 819.282581 185.348231 
z
" clip-path="url(#paa09cb7bba)" style="fill: #0071e3"/>
   </g>
   <g id="patch_8">
    <path d="M 819.282581 207.483769 
L 884.822775 207.483769 
L 884.822775 229.619306 
L 819.282581 229.619306 
z
" clip-path="url(#paa09cb7bba)" style="fill: #0071e3"/>
   </g>
   <g id="patch_9">
    <path d="M 819.282581 251.754843 
L 1048.673262 251.754843 
L 1048.673262 273.89038 
L 819.282581 273.89038 
z
" clip-path="url(#paa09cb7bba)" style="fill: #0071e3"/>
   </g>
   <g id="patch_10">
    <path d="M 819.282581 296.025917 
L 819.282581 296.025917 
L 819.282581 318.161455 
L 819.282581 318.161455 
z
" clip-path="url(#paa09cb7bba)" style="fill: #0071e3"/>
   </g>
   <g id="patch_11">
    <path d="M 819.282581 330.336 
L 1128.96 330.336 
" style="fill: none; stroke: #d2d2d7; stroke-width: 0.8; stroke-linejoin: miter; stroke-linecap: square"/>
   </g>
   <g id="text_40">
    <!-- 2 -->
    <g style="fill: #0071e3" transform="translate(892.851449 90.144564) scale(0.16 -0.16)">
     <use xlink:href="#MicrosoftYaHei-32"/>
    </g>
   </g>
   <g id="text_41">
    <!-- 2 -->
    <g style="fill: #0071e3" transform="translate(892.851449 134.415638) scale(0.16 -0.16)">
     <use xlink:href="#MicrosoftYaHei-32"/>
    </g>
   </g>
   <g id="text_42">
    <!-- 2 -->
    <g style="fill: #0071e3" transform="translate(892.851449 178.686713) scale(0.16 -0.16)">
     <use xlink:href="#MicrosoftYaHei-32"/>
    </g>
   </g>
   <g id="text_43">
    <!-- 2 -->
    <g style="fill: #0071e3" transform="translate(892.851449 222.957787) scale(0.16 -0.16)">
     <use xlink:href="#MicrosoftYaHei-32"/>
    </g>
   </g>
   <g id="text_44">
    <!-- 7 -->
    <g style="fill: #0071e3" transform="translate(1056.701935 267.228862) scale(0.16 -0.16)">
     <defs>
      <path id="MicrosoftYaHei-37" d="M 3422 4463 
Q 2659 3131 2223 1998 
Q 1788 866 1684 0 
L 1047 0 
Q 1163 853 1594 1947 
Q 2025 3041 2747 4300 
L 347 4300 
L 347 4841 
L 3422 4841 
L 3422 4463 
z
" transform="scale(0.015625)"/>
     </defs>
     <use xlink:href="#MicrosoftYaHei-37"/>
    </g>
   </g>
   <g id="text_45">
    <!-- 0 -->
    <g style="fill: #0071e3" transform="translate(827.311254 311.499936) scale(0.16 -0.16)">
     <use xlink:href="#MicrosoftYaHei-30"/>
    </g>
   </g>
   <g id="text_46">
    <!-- b  六例共减少 15 次请求（71.4%） -->
    <g style="fill: #1d1d1f" transform="translate(819.282581 42.496) scale(0.21 -0.21)">
     <defs>
      <path id="MicrosoftYaHei-Bold-62" d="M 1469 416 
L 1469 0 
L 459 0 
L 459 5116 
L 1469 5116 
L 1469 2928 
L 1481 2928 
Q 1878 3541 2613 3541 
Q 3266 3541 3636 3084 
Q 4006 2628 4006 1825 
Q 4006 966 3581 441 
Q 3156 -84 2453 -84 
Q 1809 -84 1481 416 
L 1469 416 
z
M 1453 1494 
Q 1453 1153 1656 922 
Q 1859 691 2172 691 
Q 2550 691 2761 984 
Q 2972 1278 2972 1816 
Q 2972 2263 2780 2514 
Q 2588 2766 2231 2766 
Q 1894 2766 1673 2512 
Q 1453 2259 1453 1863 
L 1453 1494 
z
" transform="scale(0.015625)"/>
      <path id="MicrosoftYaHei-Bold-516d" d="M 188 3866 
L 3025 3866 
Q 2747 4434 2419 4997 
L 3306 5397 
Q 3625 4897 3981 4234 
L 3159 3866 
L 6263 3866 
L 6263 2978 
L 188 2978 
L 188 3866 
z
M 4425 2497 
Q 5713 828 6319 -166 
L 5431 -722 
Q 4925 209 3625 1997 
L 4425 2497 
z
M 1825 2441 
L 2725 1972 
Q 1844 391 881 -766 
L 94 -166 
Q 1169 1084 1825 2441 
z
" transform="scale(0.015625)"/>
      <path id="MicrosoftYaHei-Bold-5171" d="M 138 2028 
L 1513 2028 
L 1513 3428 
L 338 3428 
L 338 4228 
L 1513 4228 
L 1513 5316 
L 2413 5316 
L 2413 4228 
L 3988 4228 
L 3988 5316 
L 4888 5316 
L 4888 4228 
L 6069 4228 
L 6069 3428 
L 4888 3428 
L 4888 2028 
L 6263 2028 
L 6263 1228 
L 138 1228 
L 138 2028 
z
M 2413 2028 
L 3988 2028 
L 3988 3428 
L 2413 3428 
L 2413 2028 
z
M 4188 1141 
Q 5356 497 6300 -84 
L 5725 -822 
Q 4894 -234 3675 509 
L 4188 1141 
z
M 2150 1103 
L 2763 459 
Q 1650 -272 606 -853 
Q 381 -491 94 -109 
Q 1081 359 2150 1103 
z
" transform="scale(0.015625)"/>
      <path id="MicrosoftYaHei-Bold-51cf" d="M 6200 4497 
L 6200 3734 
L 5034 3734 
Q 5063 2603 5113 1950 
Q 5375 2566 5525 3266 
L 6213 3078 
Q 5866 1788 5269 756 
Q 5363 328 5494 166 
Q 5556 59 5619 72 
Q 5734 109 5750 1078 
Q 6081 959 6319 909 
Q 6250 -847 5619 -847 
Q 5025 -847 4766 0 
Q 4431 -447 4038 -834 
Q 3963 -709 3525 -253 
Q 3822 9 4078 303 
L 3125 303 
L 3125 -47 
L 2500 -47 
L 2500 2309 
L 4113 2309 
L 4113 341 
Q 4347 616 4550 913 
Q 4388 1916 4313 3734 
L 2288 3734 
L 2288 2253 
Q 2288 203 1688 -872 
Q 1356 -628 900 -359 
Q 1519 603 1525 2241 
L 1525 4497 
L 4281 4497 
L 4256 5322 
L 4988 5322 
Q 4988 5134 5006 4497 
L 5453 4497 
Q 5284 4744 5063 5022 
L 5600 5347 
Q 5894 5028 6088 4759 
L 5656 4497 
L 6200 4497 
z
M 3488 903 
L 3488 1709 
L 3125 1709 
L 3125 903 
L 3488 903 
z
M 788 5009 
Q 1200 4328 1494 3684 
L 750 3328 
Q 481 3972 113 4678 
L 788 5009 
z
M 2500 3347 
L 4125 3347 
L 4125 2722 
L 2500 2722 
L 2500 3347 
z
M 675 2734 
Q 1044 2566 1388 2434 
Q 1169 1416 831 228 
Q 450 453 81 622 
Q 413 1591 675 2734 
z
" transform="scale(0.015625)"/>
      <path id="MicrosoftYaHei-Bold-5c11" d="M 4819 2628 
L 5550 2078 
Q 4547 725 3381 97 
Q 2216 -531 613 -822 
Q 331 -209 125 128 
Q 2644 559 3641 1416 
L 2738 1416 
L 2738 5278 
L 3700 5278 
L 3700 1459 
Q 4297 1938 4819 2628 
z
M 4763 4628 
Q 5581 3741 6356 2797 
L 5713 2159 
Q 4881 3228 4131 4147 
L 4763 4628 
z
M 1438 4441 
L 2288 4153 
Q 1688 2666 1025 1516 
Q 581 1797 250 1972 
Q 1038 3272 1438 4441 
z
" transform="scale(0.015625)"/>
      <path id="MicrosoftYaHei-Bold-31" d="M 2716 4947 
L 2716 0 
L 1700 0 
L 1700 3809 
Q 1513 3647 1188 3517 
Q 863 3388 591 3356 
L 591 4222 
Q 1447 4472 2072 4947 
L 2716 4947 
z
" transform="scale(0.015625)"/>
      <path id="MicrosoftYaHei-Bold-35" d="M 541 125 
L 541 997 
Q 1044 691 1613 691 
Q 2041 691 2283 902 
Q 2525 1113 2525 1472 
Q 2525 2225 1494 2225 
Q 1113 2225 616 2169 
L 797 4841 
L 3359 4841 
L 3359 4009 
L 1613 4009 
L 1544 2991 
Q 1803 3013 2022 3013 
Q 2731 3013 3142 2625 
Q 3553 2238 3553 1575 
Q 3553 844 3056 380 
Q 2559 -84 1706 -84 
Q 1016 -84 541 125 
z
" transform="scale(0.015625)"/>
      <path id="MicrosoftYaHei-Bold-8bf7" d="M 1663 3203 
L 3506 3203 
L 3506 3478 
L 2006 3478 
L 2006 4016 
L 3506 4016 
L 3506 4291 
L 1863 4291 
L 1863 4828 
L 3506 4828 
L 3506 5328 
L 4400 5328 
L 4400 4828 
L 6156 4828 
L 6156 4291 
L 4400 4291 
L 4400 4016 
L 5988 4016 
L 5988 3478 
L 4400 3478 
L 4400 3203 
L 6306 3203 
L 6306 2666 
L 1663 2666 
L 1663 3203 
z
M 938 5259 
Q 1369 4697 1744 4116 
L 1013 3678 
Q 656 4316 263 4866 
L 938 5259 
z
M 1856 1066 
Q 1881 503 1931 103 
Q 1281 -353 894 -784 
L 444 -172 
Q 613 41 613 353 
L 613 2378 
L 100 2378 
L 100 3191 
L 1400 3191 
L 1400 734 
Q 1588 866 1856 1066 
z
M 2950 -809 
L 2113 -809 
L 2113 2428 
L 5844 2428 
L 5844 53 
Q 5844 -334 5672 -540 
Q 5500 -747 5183 -775 
Q 4866 -803 3894 -809 
Q 3825 -522 3706 -147 
Q 4500 -184 4656 -184 
Q 5006 -184 5006 122 
L 5006 203 
L 2950 203 
L 2950 -809 
z
M 5006 1841 
L 2950 1841 
L 2950 1541 
L 5006 1541 
L 5006 1841 
z
M 2950 722 
L 5006 722 
L 5006 1022 
L 2950 1022 
L 2950 722 
z
" transform="scale(0.015625)"/>
      <path id="MicrosoftYaHei-Bold-6c42" d="M 6119 2716 
L 4691 1650 
Q 5353 1041 6306 722 
Q 6050 316 5788 -178 
Q 4369 459 3600 1766 
L 3600 309 
Q 3600 -191 3372 -461 
Q 3144 -731 2651 -764 
Q 2159 -797 1700 -797 
Q 1606 -297 1475 159 
Q 1900 134 2206 134 
Q 2725 134 2725 641 
L 2725 1216 
Q 1434 544 506 9 
L 94 834 
Q 1531 1438 2725 2081 
L 2725 3516 
L 200 3516 
L 200 4291 
L 2725 4291 
L 2725 5328 
L 3600 5328 
L 3600 4291 
L 4950 4291 
Q 4581 4578 4169 4847 
L 4719 5347 
Q 5175 5066 5656 4703 
L 5203 4291 
L 6213 4291 
L 6213 3516 
L 3600 3516 
L 3600 3294 
Q 3828 2694 4178 2219 
Q 4894 2763 5506 3359 
L 6119 2716 
z
M 1044 3303 
Q 1681 2841 2263 2341 
L 1688 1759 
Q 1144 2253 513 2753 
L 1044 3303 
z
" transform="scale(0.015625)"/>
      <path id="MicrosoftYaHei-Bold-ff08" d="M 5197 -1088 
Q 4056 184 4056 1881 
Q 4056 3616 5203 4838 
L 6034 4838 
Q 4922 3503 4922 1888 
Q 4922 266 6028 -1088 
L 5197 -1088 
z
" transform="scale(0.015625)"/>
      <path id="MicrosoftYaHei-Bold-37" d="M 3675 4225 
Q 3088 3172 2798 2528 
Q 2509 1884 2328 1275 
Q 2147 666 2050 0 
L 966 0 
Q 1122 947 1517 1917 
Q 1913 2888 2609 4009 
L 300 4009 
L 300 4841 
L 3675 4841 
L 3675 4225 
z
" transform="scale(0.015625)"/>
      <path id="MicrosoftYaHei-Bold-2e" d="M 313 453 
Q 313 688 491 838 
Q 669 988 916 988 
Q 1166 988 1337 834 
Q 1509 681 1509 453 
Q 1509 213 1337 64 
Q 1166 -84 903 -84 
Q 659 -84 486 69 
Q 313 222 313 453 
z
" transform="scale(0.015625)"/>
      <path id="MicrosoftYaHei-Bold-34" d="M 3184 4841 
L 3184 1766 
L 3869 1766 
L 3869 1031 
L 3184 1031 
L 3184 0 
L 2266 0 
L 2266 1031 
L 103 1031 
L 103 1772 
Q 775 2522 1362 3359 
Q 1950 4197 2250 4841 
L 3184 4841 
z
M 997 1766 
L 2266 1766 
L 2266 3541 
Q 2116 3259 1836 2859 
Q 1556 2459 997 1766 
z
" transform="scale(0.015625)"/>
      <path id="MicrosoftYaHei-Bold-25" d="M 297 3597 
Q 297 4191 626 4548 
Q 956 4906 1519 4906 
Q 2056 4906 2354 4581 
Q 2653 4256 2653 3684 
Q 2653 3097 2322 2744 
Q 1991 2391 1438 2391 
Q 919 2391 608 2722 
Q 297 3053 297 3597 
z
M 984 3631 
Q 984 2959 1478 2959 
Q 1981 2959 1981 3659 
Q 1981 4338 1500 4338 
Q 984 4338 984 3631 
z
M 4938 4841 
L 1791 -3 
L 1006 -3 
L 4147 4841 
L 4938 4841 
z
M 3297 1141 
Q 3297 1741 3631 2095 
Q 3966 2450 4522 2450 
Q 5059 2450 5357 2131 
Q 5656 1813 5656 1234 
Q 5656 641 5322 286 
Q 4988 -69 4438 -69 
Q 3922 -69 3609 264 
Q 3297 597 3297 1141 
z
M 3981 1175 
Q 3981 500 4478 500 
Q 4978 500 4978 1200 
Q 4978 1528 4845 1704 
Q 4713 1881 4491 1881 
Q 3981 1881 3981 1175 
z
" transform="scale(0.015625)"/>
      <path id="MicrosoftYaHei-Bold-ff09" d="M 1191 -1088 
L 359 -1088 
Q 1472 238 1472 1863 
Q 1472 3478 366 4838 
L 1197 4838 
Q 2338 3572 2338 1863 
Q 2338 125 1191 -1088 
z
" transform="scale(0.015625)"/>
     </defs>
     <use xlink:href="#MicrosoftYaHei-Bold-62"/>
     <use xlink:href="#MicrosoftYaHei-Bold-20" transform="translate(66.601562 0)"/>
     <use xlink:href="#MicrosoftYaHei-Bold-20" transform="translate(96.386719 0)"/>
     <use xlink:href="#MicrosoftYaHei-Bold-516d" transform="translate(126.171875 0)"/>
     <use xlink:href="#MicrosoftYaHei-Bold-4f8b" transform="translate(226.171875 0)"/>
     <use xlink:href="#MicrosoftYaHei-Bold-5171" transform="translate(326.171875 0)"/>
     <use xlink:href="#MicrosoftYaHei-Bold-51cf" transform="translate(426.171875 0)"/>
     <use xlink:href="#MicrosoftYaHei-Bold-5c11" transform="translate(526.171875 0)"/>
     <use xlink:href="#MicrosoftYaHei-Bold-20" transform="translate(626.171875 0)"/>
     <use xlink:href="#MicrosoftYaHei-Bold-31" transform="translate(655.957031 0)"/>
     <use xlink:href="#MicrosoftYaHei-Bold-35" transform="translate(717.626953 0)"/>
     <use xlink:href="#MicrosoftYaHei-Bold-20" transform="translate(779.296875 0)"/>
     <use xlink:href="#MicrosoftYaHei-Bold-6b21" transform="translate(809.082031 0)"/>
     <use xlink:href="#MicrosoftYaHei-Bold-8bf7" transform="translate(909.082031 0)"/>
     <use xlink:href="#MicrosoftYaHei-Bold-6c42" transform="translate(1009.082031 0)"/>
     <use xlink:href="#MicrosoftYaHei-Bold-ff08" transform="translate(1109.082031 0)"/>
     <use xlink:href="#MicrosoftYaHei-Bold-37" transform="translate(1209.082031 0)"/>
     <use xlink:href="#MicrosoftYaHei-Bold-31" transform="translate(1270.751953 0)"/>
     <use xlink:href="#MicrosoftYaHei-Bold-2e" transform="translate(1332.421875 0)"/>
     <use xlink:href="#MicrosoftYaHei-Bold-34" transform="translate(1360.986328 0)"/>
     <use xlink:href="#MicrosoftYaHei-Bold-25" transform="translate(1422.65625 0)"/>
     <use xlink:href="#MicrosoftYaHei-Bold-ff09" transform="translate(1515.771484 0)"/>
    </g>
   </g>
  </g>
 </g>
 <defs>
  <clipPath id="ped006ba6a1">
   <rect x="149.76" y="62.496" width="480" height="267.84"/>
  </clipPath>
  <clipPath id="paa09cb7bba">
   <rect x="819.282581" y="62.496" width="309.677419" height="267.84"/>
  </clipPath>
 </defs>
</svg>
